<svg width="723" height="794" viewBox="0 0 723 794" fill="none" xmlns="http://www.w3.org/2000/svg">
<g clip-path="url(#clip0_9_2385)">
<g filter="url(#filter0_d_9_2385)">
<path d="M649.75 131.776H685.677V165.597H649.75V131.776ZM649.75 197.717H682.318V201.937C682.318 220.957 671.735 231.517 652.711 231.517H649.75V197.696V197.717ZM714.864 197.717H750.812V231.538H714.864V197.717ZM718.245 161.797C718.245 142.777 728.807 132.217 747.83 132.217H750.791V166.038H718.224V161.818L718.245 161.797Z" stroke="#E32320" stroke-width="0.83" stroke-miterlimit="10"/>
<path d="M303.206 819.545C303.206 803.191 312.298 794.101 328.676 794.101H334.135V863.191C334.135 879.545 325.043 888.635 308.665 888.635H303.206V819.545Z" stroke="#71BFE5" stroke-width="0.83" stroke-miterlimit="10"/>
<path d="M334.114 739.56C334.114 723.206 343.206 714.116 359.563 714.116H365.023V768.657C365.023 785.011 355.931 794.101 339.574 794.101H334.114V739.56Z" stroke="#71BFE5" stroke-width="0.83" stroke-miterlimit="10"/>
<path d="M390.472 619.561H395.931V688.65C395.931 705.004 386.839 714.095 370.461 714.095H365.002V645.005C365.002 628.651 374.094 619.561 390.451 619.561H390.472Z" stroke="#71BFE5" stroke-width="0.83" stroke-miterlimit="10"/>
<path d="M607.965 160.873H533.424V157.241C533.424 140.867 542.516 131.797 558.873 131.797H607.965V160.873Z" stroke="#71BFE5" stroke-width="0.83" stroke-miterlimit="10"/>
<path d="M533.403 229.942C533.403 246.296 524.311 255.386 507.933 255.386H502.473V186.296C502.473 169.943 511.565 160.852 527.943 160.852H533.403V229.942Z" stroke="#71BFE5" stroke-width="0.83" stroke-miterlimit="10"/>
<path d="M502.494 309.948C502.494 326.302 493.402 335.392 477.045 335.392H471.586V280.851C471.586 264.497 480.678 255.407 497.035 255.407H502.494V309.948Z" stroke="#71BFE5" stroke-width="0.83" stroke-miterlimit="10"/>
<path d="M446.137 429.947H440.677V360.858C440.677 344.504 449.769 335.413 466.147 335.413H471.607V404.503C471.607 420.857 462.515 429.947 446.158 429.947H446.137Z" stroke="#71BFE5" stroke-width="0.83" stroke-miterlimit="10"/>
<path d="M718.686 92.8123V97.7458C718.686 119.894 730.99 132.196 753.143 132.196C775.295 132.196 787.621 119.894 787.621 97.7458V92.8123H718.686ZM718.686 92.8123V87.8999C718.686 65.7517 706.36 53.4495 684.208 53.4495C662.055 53.4495 649.751 65.7517 649.751 87.8999V92.8123M718.686 92.8123H649.751M649.751 92.8123H642.359C620.207 92.8123 607.902 105.115 607.902 127.263V132.196H649.751V92.8123ZM829.448 58.362C829.448 80.5101 817.144 92.8123 794.991 92.8123H787.6V55.9057H829.448V58.362Z" stroke="#FCEB4D" stroke-width="0.83" stroke-miterlimit="10"/>
<path d="M115.424 571.738C138.122 571.738 150.742 584.355 150.742 607.049V614.606H112.904V571.738H115.424ZM155.781 614.627C178.48 614.627 191.099 627.244 191.099 649.959C191.099 672.674 178.48 685.271 155.781 685.271H150.742V614.627H155.781ZM145.703 685.25H150.742V755.893H145.703C123.004 755.893 110.385 743.276 110.385 720.582C110.385 697.888 123.004 685.25 145.703 685.25ZM191.12 755.893V798.762H186.081C163.383 798.762 150.763 786.144 150.763 763.45V755.893H191.141H191.12Z" stroke="#FCEB4D" stroke-width="0.83" stroke-miterlimit="10"/>
<path d="M304.97 476.322H313.663V519.8H264.381V516.902C264.381 490.808 278.869 476.322 304.97 476.322ZM313.684 470.528C313.684 444.433 328.193 429.947 354.293 429.947H358.345V476.322H313.684V470.528ZM346.734 516.902C346.734 490.808 361.243 476.322 387.343 476.322H396.036V519.8H346.734V516.902ZM396.015 470.528C396.015 444.433 410.504 429.947 436.604 429.947H440.656V476.322H396.015V470.528Z" stroke="#E32320" stroke-width="0.83" stroke-miterlimit="10"/>
<path d="M228.643 485.433V519.821H264.381V516.693C264.381 496.602 253.21 485.433 233.116 485.433H228.643ZM228.643 485.433V478.736C228.643 458.645 217.472 447.477 197.378 447.477H172.81V485.433H228.643Z" stroke="#39AF81" stroke-width="0.83" stroke-miterlimit="10"/>
<path d="M91.5286 447.477H84.8094C64.7147 447.477 53.5439 458.645 53.5439 478.736V563.592H60.2422C80.3579 563.592 91.5286 552.424 91.5286 532.333V447.477ZM91.5286 447.477H172.369V411.746H122.794C102.699 411.746 91.5286 422.914 91.5286 443.005V447.477Z" stroke="#39AF81" stroke-width="0.83" stroke-miterlimit="10"/>
<path d="M496.426 519.17V555.09H462.599V519.17H496.426ZM430.493 519.17V551.731H426.273C407.249 551.731 396.687 541.15 396.687 522.13V519.17H430.514H430.493ZM430.493 584.25V620.191H396.666V584.25H430.493ZM466.42 587.63C485.444 587.63 496.006 598.189 496.006 617.209V620.17H462.179V587.609H466.399L466.42 587.63Z" stroke="#FCEB4D" stroke-width="0.83" stroke-miterlimit="10"/>
</g>
</g>
<defs>
<filter id="filter0_d_9_2385" x="36.629" y="36.5345" width="809.734" height="898.091" filterUnits="userSpaceOnUse" color-interpolation-filters="sRGB">
<feFlood flood-opacity="0" result="BackgroundImageFix"/>
<feColorMatrix in="SourceAlpha" type="matrix" values="0 0 0 0 0 0 0 0 0 0 0 0 0 0 0 0 0 0 127 0" result="hardAlpha"/>
<feOffset/>
<feGaussianBlur stdDeviation="8.25"/>
<feColorMatrix type="matrix" values="0 0 0 0 0.878431 0 0 0 0 0.709804 0 0 0 0 1 0 0 0 0.75 0"/>
<feBlend mode="normal" in2="BackgroundImageFix" result="effect1_dropShadow_9_2385"/>
<feBlend mode="normal" in="SourceGraphic" in2="effect1_dropShadow_9_2385" result="shape"/>
</filter>
<clipPath id="clip0_9_2385">
<rect width="769" height="794" fill="white"/>
</clipPath>
</defs>
</svg>
