<?xml version="1.0" encoding="UTF-8"?>
<svg id="Camada_2" data-name="Camada 2" xmlns="http://www.w3.org/2000/svg" viewBox="0 0 554.12 232.1">
  <defs>
    <style>
      .cls-1 {
        fill: #fff;
      }

      .cls-2 {
        fill: #fceb4d;
      }
    </style>
  </defs>
  <g id="conteúdo">
    <g>
      <g>
        <path class="cls-2" d="M2.03,0h8.85c4.58,0,7.12,2.54,7.12,7.12v1.02H2.03V0ZM2.03,73.26h15.98v8.14H2.03v-8.14ZM18,66.14V8.14h1.53c4.58,0,7.12,2.54,7.12,7.12v58h-1.53c-4.58,0-7.12-2.54-7.12-7.12ZM26.65,0h15.98v8.14h-15.98V0ZM26.65,73.26h15.98v8.14h-8.85c-4.58,0-7.12-2.54-7.12-7.12v-1.02Z"/>
        <path class="cls-2" d="M54.83,0h8.65v65.12h-1.53c-4.58,0-7.12-2.54-7.12-7.12V0ZM63.48,65.12h1.02c4.58,0,7.12,2.54,7.12,7.12v1.02h-1.02c-4.58,0-7.12-2.54-7.12-7.12v-1.02ZM71.62,73.26h17.3v1.02c0,4.58-2.54,7.12-7.12,7.12h-3.05c-4.58,0-7.12-2.54-7.12-7.12v-1.02ZM97.05,66.14c0,4.58-2.54,7.12-7.12,7.12h-1.02v-1.02c0-4.58,2.54-7.12,7.12-7.12h1.02v1.02ZM97.05,0h8.65v58c0,4.58-2.54,7.12-7.12,7.12h-1.53V0Z"/>
      </g>
      <g>
        <path class="cls-1" d="M135.95,42.93c0-14.44,8.42-23.05,21.47-23.05s19.44,7.96,19.44,19.9c0,1.3-.09,3.24-.28,5.18h-32.58c.65,8.79,5.28,13.61,13.61,13.61,7.77,0,10.46-3.89,11.85-8.7l7.03,1.94c-2.13,8.24-7.68,13.42-18.88,13.42-13.42,0-21.66-7.96-21.66-22.31ZM144.09,39.14h25.27c-.37-8.24-4.17-12.87-12.12-12.87s-12.22,4.26-13.14,12.87Z"/>
        <path class="cls-1" d="M193.61,64.22h-8.05V20.99h7.87v11.2h.83c2.41-7.68,8.15-12.31,15.64-12.31,9.63,0,13.98,6.29,13.98,15.74v28.6h-8.05v-26.66c0-5.92-2.41-10.37-9.35-10.37-7.68,0-12.87,4.91-12.87,12.31v24.71Z"/>
        <path class="cls-1" d="M253.49,27.01c-8.15,0-13.14,5.28-13.14,15.64,0,9.53,4.72,15.55,13.51,15.55,7.96,0,10.55-4.81,12.13-10.64l7.4,1.94c-1.94,9.9-7.87,15.83-19.44,15.83-13.61,0-21.84-8.24-21.84-22.58s8.61-22.86,21.57-22.86c12.13,0,17.77,5.74,19.53,15.92l-7.5,1.57c-1.48-6.39-4.44-10.37-12.22-10.37Z"/>
        <path class="cls-1" d="M312.26,52.93h-.74c-2.41,7.68-8.15,12.4-15.64,12.4-9.72,0-14.07-6.39-14.07-15.83v-28.51h8.05v26.56c0,6.02,2.5,10.37,9.44,10.37,7.68,0,12.77-4.81,12.77-12.22v-24.71h8.05v43.22h-7.87v-11.29Z"/>
        <path class="cls-1" d="M328.73,42.93c0-14.44,8.42-23.05,21.47-23.05s19.44,7.96,19.44,19.9c0,1.3-.09,3.24-.28,5.18h-32.58c.65,8.79,5.28,13.61,13.61,13.61,7.77,0,10.46-3.89,11.85-8.7l7.03,1.94c-2.13,8.24-7.68,13.42-18.88,13.42-13.42,0-21.66-7.96-21.66-22.31ZM336.87,39.14h25.27c-.37-8.24-4.17-12.87-12.12-12.87s-12.22,4.26-13.14,12.87Z"/>
        <path class="cls-1" d="M386.39,64.22h-8.05V20.99h7.87v11.2h.83c2.41-7.68,8.15-12.31,15.64-12.31,9.63,0,13.98,6.29,13.98,15.74v28.6h-8.05v-26.66c0-5.92-2.41-10.37-9.35-10.37-7.68,0-12.87,4.91-12.87,12.31v24.71Z"/>
        <path class="cls-1" d="M430.26,27.66h-6.57v-6.66h6.57v-12.12h8.05v12.12h13.79v6.66h-13.79v22.77c0,4.91,1.85,7.4,6.66,7.4,2.31,0,4.26-.46,6.57-1.11l1.02,7.13c-2.96.93-5.28,1.48-9.26,1.48-9.07,0-13.05-5.92-13.05-13.98v-23.7Z"/>
        <path class="cls-1" d="M460.15,64.22V20.99h7.77v12.22l.65.09c2.22-9.44,6.66-12.77,13.33-12.77h1.67v8.89h-2.22c-9.35,0-13.14,3.7-13.14,13.42v21.38h-8.05Z"/>
        <path class="cls-1" d="M488.1,42.47c0-14.16,8.52-22.58,21.66-22.58s21.66,8.42,21.66,22.58-7.96,22.86-21.66,22.86-21.66-8.79-21.66-22.86ZM496.15,42.38c0,9.72,4.35,15.92,13.51,15.92s13.7-6.2,13.7-15.92-4.72-15.55-13.61-15.55-13.61,5.83-13.61,15.55Z"/>
      </g>
      <g>
        <path class="cls-1" d="M29.62,132.66h-.83c-2.13,7.13-7.68,11.2-15.36,11.2-8.15,0-13.42-3.7-13.42-12.03,0-7.5,4.81-12.96,15.36-12.96h13.88v-3.52c0-6.48-2.5-10-9.53-10-5.83,0-9.07,2.87-10.46,8.61l-7.59-1.85c1.76-8.33,7.96-13.42,18.33-13.42,12.03,0,17.31,5.83,17.31,16.57v27.68h-7.68v-10.27ZM29.25,126.82v-2.41h-12.68c-5.65,0-8.89,2.22-8.89,6.48,0,3.42,2.13,6.48,8.52,6.48,7.96,0,13.05-4.44,13.05-10.55Z"/>
        <path class="cls-1" d="M66.92,105.72c-8.15,0-13.14,5.28-13.14,15.64,0,9.53,4.72,15.55,13.51,15.55,7.96,0,10.55-4.81,12.13-10.64l7.4,1.94c-1.94,9.9-7.87,15.83-19.44,15.83-13.61,0-21.84-8.24-21.84-22.58s8.61-22.86,21.57-22.86c12.13,0,17.77,5.74,19.53,15.92l-7.5,1.57c-1.48-6.39-4.44-10.37-12.22-10.37Z"/>
        <path class="cls-1" d="M92.92,121.64c0-14.44,8.42-23.05,21.47-23.05s19.44,7.96,19.44,19.9c0,1.3-.09,3.24-.28,5.18h-32.58c.65,8.79,5.28,13.61,13.61,13.61,7.77,0,10.46-3.89,11.85-8.7l7.03,1.94c-2.13,8.24-7.68,13.42-18.88,13.42-13.42,0-21.66-7.96-21.66-22.31ZM101.07,117.85h25.27c-.37-8.24-4.17-12.87-12.12-12.87s-12.22,4.26-13.14,12.87Z"/>
        <path class="cls-1" d="M150.58,111.09h.65c2.13-7.4,7.03-12.5,15.36-12.5,10.83,0,16.75,8.15,16.75,22.77s-6.2,22.68-16.38,22.68c-8.42,0-13.7-5.37-15.83-12.77h-.56v11.66h-8.05v-59.42h8.05v27.58ZM175.39,121.36c0-10.46-3.79-15.46-12.03-15.46-7.77,0-12.77,5.37-12.77,13.88v3.33c0,8.14,5,13.79,12.77,13.79s12.03-5.18,12.03-15.55Z"/>
        <path class="cls-1" d="M192.04,142.93v-43.22h7.77v12.22l.65.09c2.22-9.44,6.66-12.77,13.33-12.77h1.67v8.89h-2.22c-9.35,0-13.14,3.7-13.14,13.42v21.38h-8.05Z"/>
        <path class="cls-1" d="M249.7,132.66h-.83c-2.13,7.13-7.68,11.2-15.36,11.2-8.15,0-13.42-3.7-13.42-12.03,0-7.5,4.81-12.96,15.36-12.96h13.88v-3.52c0-6.48-2.5-10-9.53-10-5.83,0-9.07,2.87-10.46,8.61l-7.59-1.85c1.76-8.33,7.96-13.42,18.33-13.42,12.03,0,17.31,5.83,17.31,16.57v27.68h-7.68v-10.27ZM249.33,126.82v-2.41h-12.68c-5.65,0-8.89,2.22-8.89,6.48,0,3.42,2.13,6.48,8.52,6.48,7.96,0,13.05-4.44,13.05-10.55Z"/>
      </g>
      <g>
        <path class="cls-1" d="M2.43,196.63v-18.68h12.99v2.88H5.81v4.76h8.86v2.88H5.81v5.24h10.13v2.91H2.43Z"/>
        <path class="cls-1" d="M19.62,192.45c.69,1.35,1.9,2.14,3.36,2.14,1.35,0,2.09-.58,2.09-1.37,0-.87-.45-1.24-2.43-1.88l-1.4-.45c-2.04-.64-3.33-1.83-3.33-3.84s1.85-3.97,5.11-3.97c2.09,0,4.02.79,5.18,2.65l-2.3,1.56c-.66-1.16-1.67-1.85-2.94-1.85s-1.96.53-1.96,1.3.42,1.16,2.12,1.69l1.4.42c2.33.74,3.65,1.83,3.65,3.94,0,2.43-2.04,4.21-5.32,4.21-2.7,0-4.52-1.3-5.63-2.96l2.41-1.59Z"/>
        <path class="cls-1" d="M36.89,196.58c-.69.19-1.53.29-2.3.29-1.3,0-2.17-.32-2.7-.95-.56-.63-.74-1.56-.74-2.78v-7.2h-2.06v-2.49h2.12v-4.29h3.07v4.29h2.57v2.49h-2.57v6.59c0,1.35.4,1.83,1.35,1.83.37,0,.85-.08,1.27-.24v2.46Z"/>
        <path class="cls-1" d="M38.77,196.63v-13.17h2.96v2.04c.79-1.43,1.83-2.2,3.65-2.2.42,0,.74.05,1.14.16v3.12c-.5-.26-.9-.37-1.48-.37-1.03,0-1.9.45-2.49,1.3-.45.66-.69,1.59-.69,2.99v6.14h-3.09Z"/>
        <path class="cls-1" d="M55.75,187.69c0-.74-.16-1.24-.5-1.59-.37-.37-1.01-.56-1.83-.56-1.61,0-2.33.82-2.49,2.27l-2.96-.26c.21-2.86,2.33-4.44,5.69-4.44,1.8,0,3.07.42,3.94,1.27.82.77,1.11,1.85,1.11,3.91v4.84c0,1.56.11,2.86.37,3.49h-2.99c-.11-.42-.26-1.24-.26-1.64-1.01,1.22-2.43,1.88-4.31,1.88-2.41,0-4.1-1.51-4.1-3.86,0-1.69.85-2.8,2.41-3.52,1.3-.58,3.84-.95,5.93-1.08v-.71ZM55.75,190.47c-1.51.08-3.28.34-4.21.79-.82.37-1.14.87-1.14,1.61,0,.95.63,1.67,2.01,1.67,1.19,0,2.17-.5,2.75-1.38.42-.61.56-1.35.58-2.09v-.61Z"/>
        <path class="cls-1" d="M68.26,196.58c-.69.19-1.53.29-2.3.29-1.3,0-2.17-.32-2.7-.95-.56-.63-.74-1.56-.74-2.78v-7.2h-2.06v-2.49h2.12v-4.29h3.07v4.29h2.57v2.49h-2.57v6.59c0,1.35.4,1.83,1.35,1.83.37,0,.85-.08,1.27-.24v2.46Z"/>
        <path class="cls-1" d="M81.67,193.32c-.98,2.38-2.99,3.7-5.74,3.7-4.23,0-6.51-2.75-6.51-7.11s2.54-6.82,6.38-6.82c4.18,0,5.93,3.04,5.95,7.75h-9.21c.11,2.27,1.35,3.57,3.44,3.57,1.35,0,2.49-.53,2.96-2.04l2.72.95ZM78.6,188.62c-.11-2.06-1.19-3.12-2.88-3.12s-2.94,1.06-3.15,3.12h6.03Z"/>
        <path class="cls-1" d="M92.62,194.81c-.93,1.14-2.2,1.69-3.89,1.69-3.23,0-5.29-2.46-5.29-6.61s2.22-6.64,5.48-6.64c1.83,0,3.09.66,3.84,1.85v-1.61h3.07v12.27c0,2.72-.63,4.44-2.04,5.42-1.03.74-2.54,1.06-4.23,1.06-3.2,0-5.24-1.4-5.82-4.13l3.25-.58c.24,1.46,1.22,2.2,2.65,2.2,1.27,0,2.06-.37,2.51-1.11.37-.56.48-1.46.48-2.57v-1.24ZM89.81,185.81c-1.96,0-3.17,1.48-3.17,4.05,0,2.7,1.19,4.23,3.07,4.23s2.96-1.27,2.99-3.94c0-2.7-.98-4.34-2.88-4.34Z"/>
        <path class="cls-1" d="M99.02,180.87v-2.91h3.15v2.91h-3.15ZM102.17,196.63h-3.12v-13.17h3.12v13.17Z"/>
        <path class="cls-1" d="M112.88,187.69c0-.74-.16-1.24-.5-1.59-.37-.37-1.01-.56-1.83-.56-1.61,0-2.33.82-2.49,2.27l-2.96-.26c.21-2.86,2.33-4.44,5.69-4.44,1.8,0,3.07.42,3.94,1.27.82.77,1.11,1.85,1.11,3.91v4.84c0,1.56.11,2.86.37,3.49h-2.99c-.11-.42-.26-1.24-.26-1.64-1.01,1.22-2.43,1.88-4.31,1.88-2.41,0-4.1-1.51-4.1-3.86,0-1.69.85-2.8,2.41-3.52,1.3-.58,3.84-.95,5.93-1.08v-.71ZM112.88,190.47c-1.51.08-3.28.34-4.21.79-.82.37-1.14.87-1.14,1.61,0,.95.63,1.67,2.01,1.67,1.19,0,2.17-.5,2.75-1.38.42-.61.56-1.35.58-2.09v-.61Z"/>
        <path class="cls-1" d="M120.15,192.45c.69,1.35,1.9,2.14,3.36,2.14,1.35,0,2.09-.58,2.09-1.37,0-.87-.45-1.24-2.43-1.88l-1.4-.45c-2.04-.64-3.33-1.83-3.33-3.84s1.85-3.97,5.11-3.97c2.09,0,4.02.79,5.18,2.65l-2.3,1.56c-.66-1.16-1.67-1.85-2.94-1.85s-1.96.53-1.96,1.3.42,1.16,2.12,1.69l1.4.42c2.33.74,3.65,1.83,3.65,3.94,0,2.43-2.04,4.21-5.32,4.21-2.7,0-4.52-1.3-5.63-2.96l2.41-1.59Z"/>
        <path class="cls-1" d="M145.46,196.63v-1.85c-.85,1.24-2.09,2.12-3.94,2.12-3.04,0-5.29-2.33-5.29-6.9,0-4.31,2.43-6.8,5.48-6.8,1.96,0,3.04.71,3.76,1.72v-6.96h3.02v18.68h-3.02ZM142.47,185.76c-1.83,0-3.07,1.4-3.07,4.21,0,2.65,1.11,4.34,2.94,4.34s3.12-1.43,3.12-4.23c0-2.65-1.14-4.31-2.99-4.31Z"/>
        <path class="cls-1" d="M163.24,193.32c-.98,2.38-2.99,3.7-5.74,3.7-4.23,0-6.51-2.75-6.51-7.11s2.54-6.82,6.38-6.82c4.18,0,5.93,3.04,5.95,7.75h-9.21c.11,2.27,1.35,3.57,3.44,3.57,1.35,0,2.49-.53,2.96-2.04l2.72.95ZM160.17,188.62c-.11-2.06-1.19-3.12-2.88-3.12s-2.94,1.06-3.15,3.12h6.03Z"/>
        <path class="cls-1" d="M183.74,183.8c-.5-2.04-1.8-3.28-3.84-3.28-3.41,0-5.24,2.49-5.24,6.51,0,4.26,1.93,7.01,5.24,7.01,2.06,0,3.65-1.16,4.15-3.44l3.23,1.16c-1.16,3.44-3.91,5.29-7.51,5.29-5.37,0-8.62-3.76-8.62-9.89s3.52-9.63,8.81-9.63c3.7,0,6.14,1.96,7.09,5.05l-3.31,1.22Z"/>
        <path class="cls-1" d="M195.08,197c-4.13,0-6.45-2.59-6.45-6.98s2.57-6.93,6.64-6.93,6.27,2.62,6.27,7.09-2.59,6.82-6.45,6.82ZM195.19,185.68c-1.96,0-3.39,1.51-3.39,4.26,0,2.99,1.38,4.47,3.31,4.47s3.31-1.35,3.31-4.31-1.27-4.42-3.23-4.42Z"/>
        <path class="cls-1" d="M209.79,197c-4.13,0-6.45-2.59-6.45-6.98s2.57-6.93,6.64-6.93,6.27,2.62,6.27,7.09-2.59,6.82-6.45,6.82ZM209.89,185.68c-1.96,0-3.39,1.51-3.39,4.26,0,2.99,1.38,4.47,3.31,4.47s3.31-1.35,3.31-4.31-1.27-4.42-3.23-4.42Z"/>
        <path class="cls-1" d="M221.8,183.46v1.88c.85-1.24,2.14-2.14,3.99-2.14,3.02,0,5.21,2.3,5.21,6.88,0,4.31-2.43,6.8-5.45,6.8-1.96,0-3.07-.69-3.76-1.72v6.72h-3.04v-18.41h3.04ZM224.78,194.3c1.82,0,3.04-1.4,3.04-4.21,0-2.65-1.08-4.34-2.91-4.34s-3.15,1.46-3.15,4.26c0,2.65,1.16,4.29,3.02,4.29Z"/>
        <path class="cls-1" d="M245.05,193.32c-.98,2.38-2.99,3.7-5.74,3.7-4.23,0-6.51-2.75-6.51-7.11s2.54-6.82,6.38-6.82c4.18,0,5.93,3.04,5.95,7.75h-9.21c.11,2.27,1.35,3.57,3.44,3.57,1.35,0,2.49-.53,2.96-2.04l2.72.95ZM241.98,188.62c-.11-2.06-1.19-3.12-2.88-3.12s-2.94,1.06-3.15,3.12h6.03Z"/>
        <path class="cls-1" d="M247.53,196.63v-13.17h2.96v2.04c.79-1.43,1.83-2.2,3.65-2.2.42,0,.74.05,1.14.16v3.12c-.5-.26-.9-.37-1.48-.37-1.03,0-1.9.45-2.49,1.3-.45.66-.69,1.59-.69,2.99v6.14h-3.09Z"/>
        <path class="cls-1" d="M264.51,187.69c0-.74-.16-1.24-.5-1.59-.37-.37-1.01-.56-1.83-.56-1.61,0-2.33.82-2.49,2.27l-2.96-.26c.21-2.86,2.33-4.44,5.69-4.44,1.8,0,3.07.42,3.94,1.27.82.77,1.11,1.85,1.11,3.91v4.84c0,1.56.11,2.86.37,3.49h-2.99c-.11-.42-.26-1.24-.26-1.64-1.01,1.22-2.43,1.88-4.31,1.88-2.41,0-4.1-1.51-4.1-3.86,0-1.69.85-2.8,2.41-3.52,1.3-.58,3.84-.95,5.93-1.08v-.71ZM264.51,190.47c-1.51.08-3.28.34-4.21.79-.82.37-1.14.87-1.14,1.61,0,.95.63,1.67,2.01,1.67,1.19,0,2.17-.5,2.75-1.38.42-.61.56-1.35.58-2.09v-.61Z"/>
        <path class="cls-1" d="M278.79,188.01c-.37-1.75-1.32-2.33-2.57-2.33-1.8,0-3.17,1.35-3.17,4.29s1.22,4.44,3.25,4.44c1.4,0,2.25-.74,2.57-2.14l2.78.95c-.77,2.19-2.51,3.78-5.5,3.78-3.84,0-6.27-2.65-6.27-6.98s2.49-6.93,6.43-6.93c2.86,0,4.66,1.61,5.26,3.97l-2.78.95Z"/>
        <path class="cls-1" d="M283.55,180.87v-2.91h3.15v2.91h-3.15ZM286.7,196.63h-3.12v-13.17h3.12v13.17Z"/>
        <path class="cls-1" d="M295.67,197c-4.13,0-6.45-2.59-6.45-6.98s2.57-6.93,6.64-6.93,6.27,2.62,6.27,7.09-2.59,6.82-6.45,6.82ZM295.77,185.68c-1.96,0-3.39,1.51-3.39,4.26,0,2.99,1.38,4.47,3.31,4.47s3.31-1.35,3.31-4.31-1.27-4.42-3.23-4.42ZM299.77,177.59l-3.6,3.97h-2.38l2.27-3.97h3.7Z"/>
        <path class="cls-1" d="M312.99,196.63v-7.57c0-1.03-.11-1.8-.48-2.33-.34-.5-.93-.74-1.77-.74s-1.72.45-2.25,1.16c-.66.87-.77,1.85-.77,3.12v6.35h-3.09v-13.17h3.07v1.96c.95-1.35,2.51-2.2,4.36-2.2,1.59,0,2.62.55,3.28,1.56.53.79.74,1.83.74,3.6v8.25h-3.09Z"/>
        <path class="cls-1" d="M333.04,177.96c2.09,0,3.36.21,4.29.71,1.3.71,2.06,2.14,2.06,3.91,0,1.96-1.06,3.49-3.2,4.13,2.57.45,3.86,2.22,3.86,4.66,0,1.96-.9,3.55-2.35,4.39-1.14.66-2.57.87-5.24.87h-7.25v-18.68h7.83ZM328.57,185.52h3.84c1.08,0,1.96-.13,2.54-.42.69-.34,1.06-1.08,1.06-1.96s-.24-1.61-1.01-2.01c-.56-.29-1.32-.37-2.49-.37h-3.94v4.76ZM328.57,193.8h3.62c1.46,0,2.62-.13,3.39-.64.61-.4.95-1.11.95-2.06s-.34-1.83-1.06-2.27c-.69-.42-1.53-.53-2.96-.53h-3.94v5.5Z"/>
        <path class="cls-1" d="M342.61,196.63v-13.17h2.96v2.04c.79-1.43,1.83-2.2,3.65-2.2.42,0,.74.05,1.14.16v3.12c-.5-.26-.9-.37-1.48-.37-1.03,0-1.9.45-2.49,1.3-.45.66-.69,1.59-.69,2.99v6.14h-3.09Z"/>
        <path class="cls-1" d="M359.6,187.69c0-.74-.16-1.24-.5-1.59-.37-.37-1.01-.56-1.83-.56-1.61,0-2.33.82-2.49,2.27l-2.96-.26c.21-2.86,2.33-4.44,5.69-4.44,1.8,0,3.07.42,3.94,1.27.82.77,1.11,1.85,1.11,3.91v4.84c0,1.56.11,2.86.37,3.49h-2.99c-.11-.42-.26-1.24-.26-1.64-1.01,1.22-2.43,1.88-4.31,1.88-2.41,0-4.1-1.51-4.1-3.86,0-1.69.85-2.8,2.41-3.52,1.3-.58,3.84-.95,5.93-1.08v-.71ZM359.6,190.47c-1.51.08-3.28.34-4.21.79-.82.37-1.14.87-1.14,1.61,0,.95.63,1.67,2.01,1.67,1.19,0,2.17-.5,2.75-1.38.42-.61.56-1.35.58-2.09v-.61Z"/>
        <path class="cls-1" d="M366.87,192.45c.69,1.35,1.9,2.14,3.36,2.14,1.35,0,2.09-.58,2.09-1.37,0-.87-.45-1.24-2.43-1.88l-1.4-.45c-2.04-.64-3.33-1.83-3.33-3.84s1.85-3.97,5.11-3.97c2.09,0,4.02.79,5.18,2.65l-2.3,1.56c-.66-1.16-1.67-1.85-2.94-1.85s-1.96.53-1.96,1.3.42,1.16,2.12,1.69l1.4.42c2.33.74,3.65,1.83,3.65,3.94,0,2.43-2.04,4.21-5.32,4.21-2.7,0-4.52-1.3-5.63-2.96l2.41-1.59Z"/>
        <path class="cls-1" d="M377.69,180.87v-2.91h3.15v2.91h-3.15ZM380.83,196.63h-3.12v-13.17h3.12v13.17Z"/>
        <path class="cls-1" d="M387.18,196.63h-3.12v-18.68h3.12v18.68Z"/>
        <path class="cls-1" d="M389.93,189.89v-2.49h7.64v2.49h-7.64Z"/>
        <path class="cls-1" d="M400.43,196.63v-18.68h12.99v2.88h-9.6v4.76h8.86v2.88h-8.86v5.24h10.13v2.91h-13.52Z"/>
        <path class="cls-1" d="M417.62,192.45c.69,1.35,1.9,2.14,3.36,2.14,1.35,0,2.09-.58,2.09-1.37,0-.87-.45-1.24-2.43-1.88l-1.4-.45c-2.04-.64-3.33-1.83-3.33-3.84s1.85-3.97,5.11-3.97c2.09,0,4.02.79,5.18,2.65l-2.3,1.56c-.66-1.16-1.67-1.85-2.94-1.85s-1.96.53-1.96,1.3.42,1.16,2.12,1.69l1.4.42c2.33.74,3.65,1.83,3.65,3.94,0,2.43-2.04,4.21-5.32,4.21-2.7,0-4.52-1.3-5.63-2.96l2.41-1.59Z"/>
        <path class="cls-1" d="M431.51,183.46v1.88c.85-1.24,2.14-2.14,3.99-2.14,3.02,0,5.21,2.3,5.21,6.88,0,4.31-2.43,6.8-5.45,6.8-1.96,0-3.07-.69-3.76-1.72v6.72h-3.04v-18.41h3.04ZM434.5,194.3c1.82,0,3.04-1.4,3.04-4.21,0-2.65-1.08-4.34-2.91-4.34s-3.15,1.46-3.15,4.26c0,2.65,1.16,4.29,3.02,4.29Z"/>
        <path class="cls-1" d="M450.71,187.69c0-.74-.16-1.24-.5-1.59-.37-.37-1.01-.56-1.83-.56-1.61,0-2.33.82-2.49,2.27l-2.96-.26c.21-2.86,2.33-4.44,5.69-4.44,1.8,0,3.07.42,3.94,1.27.82.77,1.11,1.85,1.11,3.91v4.84c0,1.56.11,2.86.37,3.49h-2.99c-.11-.42-.26-1.24-.26-1.64-1.01,1.22-2.43,1.88-4.31,1.88-2.41,0-4.1-1.51-4.1-3.86,0-1.69.85-2.8,2.41-3.52,1.3-.58,3.84-.95,5.93-1.08v-.71ZM450.71,190.47c-1.51.08-3.28.34-4.21.79-.82.37-1.14.87-1.14,1.61,0,.95.63,1.67,2.01,1.67,1.19,0,2.17-.5,2.75-1.38.42-.61.56-1.35.58-2.09v-.61Z"/>
        <path class="cls-1" d="M465.15,196.63v-7.57c0-1.03-.11-1.8-.48-2.33-.34-.5-.93-.74-1.77-.74s-1.72.45-2.25,1.16c-.66.87-.77,1.85-.77,3.12v6.35h-3.09v-13.17h3.07v1.96c.95-1.35,2.51-2.2,4.36-2.2,1.59,0,2.62.55,3.28,1.56.53.79.74,1.83.74,3.6v8.25h-3.09ZM464.28,181.42c-.45,0-1.01-.16-1.51-.42l-.63-.32c-.34-.18-.71-.32-.98-.32-.61,0-1.01.32-1.35,1.14l-1.61-1.03c.77-1.64,1.43-2.33,2.67-2.33.42,0,.85.11,1.3.34l.66.32c.45.21.79.37,1.08.37.61,0,.9-.26,1.35-1.06l1.61,1.03c-.66,1.46-1.4,2.27-2.59,2.27Z"/>
        <path class="cls-1" d="M478.8,187.69c0-.74-.16-1.24-.5-1.59-.37-.37-1.01-.56-1.83-.56-1.61,0-2.33.82-2.49,2.27l-2.96-.26c.21-2.86,2.33-4.44,5.69-4.44,1.8,0,3.07.42,3.94,1.27.82.77,1.11,1.85,1.11,3.91v4.84c0,1.56.11,2.86.37,3.49h-2.99c-.11-.42-.26-1.24-.26-1.64-1.01,1.22-2.43,1.88-4.31,1.88-2.41,0-4.1-1.51-4.1-3.86,0-1.69.85-2.8,2.41-3.52,1.3-.58,3.84-.95,5.93-1.08v-.71ZM478.8,190.47c-1.51.08-3.28.34-4.21.79-.82.37-1.14.87-1.14,1.61,0,.95.63,1.67,2.01,1.67,1.19,0,2.17-.5,2.75-1.38.42-.61.56-1.35.58-2.09v-.61Z"/>
        <path class="cls-1" d="M13.35,224.98c-.77,2.38-2.91,3.7-5.42,3.7-4.07,0-6.19-2.78-6.19-7.01s2.46-6.72,6.06-6.72,5.56,2.49,5.58,7.2H3.85c0,2.86,1.45,4.76,4.13,4.76,1.59,0,2.99-.58,3.52-2.54l1.85.61ZM7.74,216.68c-1.98,0-3.57,1.19-3.86,3.84h7.35c-.19-2.78-1.56-3.84-3.49-3.84Z"/>
        <path class="cls-1" d="M24.59,228.37v-7.88c0-1.06-.11-1.96-.53-2.59-.4-.61-1.08-.95-2.17-.95-.87,0-1.9.45-2.65,1.35-.93,1.11-.98,2.49-.98,3.81v6.27h-2.09v-13.07h2.09v2.04c.9-1.4,2.57-2.25,4.39-2.25s2.75.69,3.39,1.75c.48.79.61,1.75.61,3.54v7.99h-2.06Z"/>
        <path class="cls-1" d="M48.26,215.04c-.66-2.46-2.22-3.7-4.58-3.7-3.7,0-6.03,2.67-6.03,7.38s2.38,7.96,6.03,7.96c2.3,0,4.29-1.11,4.92-3.89l2.22.79c-1.19,3.52-3.92,5.16-7.35,5.16-5.08,0-8.2-3.76-8.2-9.81s3.49-9.6,8.41-9.6c3.33,0,5.87,1.67,6.77,4.89l-2.2.82Z"/>
        <path class="cls-1" d="M53.02,212.05v-2.35h2.14v2.35h-2.14ZM53.05,228.37v-13.07h2.09v13.07h-2.09Z"/>
        <path class="cls-1" d="M69.61,224.98c-.77,2.38-2.91,3.7-5.42,3.7-4.07,0-6.19-2.78-6.19-7.01s2.46-6.72,6.06-6.72,5.56,2.49,5.58,7.2h-9.52c0,2.86,1.45,4.76,4.13,4.76,1.59,0,2.99-.58,3.52-2.54l1.85.61ZM64,216.68c-1.98,0-3.57,1.19-3.86,3.84h7.35c-.19-2.78-1.56-3.84-3.49-3.84Z"/>
        <path class="cls-1" d="M80.85,228.37v-7.88c0-1.06-.11-1.96-.53-2.59-.4-.61-1.08-.95-2.17-.95-.87,0-1.9.45-2.65,1.35-.93,1.11-.98,2.49-.98,3.81v6.27h-2.09v-13.07h2.09v2.04c.9-1.4,2.57-2.25,4.39-2.25s2.75.69,3.39,1.75c.48.79.61,1.75.61,3.54v7.99h-2.06Z"/>
        <path class="cls-1" d="M94.6,219.38c-.45-1.98-1.64-2.62-3.02-2.62-2.35,0-3.84,1.83-3.84,5.08s1.51,5.08,3.99,5.08c1.67,0,2.62-.87,2.96-2.49l1.93.64c-.74,2.09-2.22,3.62-5.11,3.62-3.54,0-5.93-2.57-5.93-6.88s2.3-6.82,6.08-6.82c2.43,0,4.29,1.19,4.87,3.76l-1.96.64Z"/>
        <path class="cls-1" d="M98.78,212.05v-2.35h2.14v2.35h-2.14ZM98.81,228.37v-13.07h2.09v13.07h-2.09Z"/>
        <path class="cls-1" d="M111.85,219.27c0-1.69-.9-2.54-2.7-2.54-2.01,0-2.91.85-3.07,2.7l-2.09-.24c.21-2.72,2.3-4.23,5.26-4.23,1.64,0,2.86.45,3.62,1.3.71.74.98,1.85.98,3.84v4.21c0,.55.03,1.37.08,1.75.08.56.45.77,1.11.77.16,0,.34-.03.5-.05v1.59c-.34.05-.74.08-1.08.08-1.75,0-2.41-.66-2.54-2.01-.9,1.4-2.43,2.17-4.34,2.17-2.27,0-4.07-1.48-4.07-3.68,0-1.77.93-2.83,2.43-3.49,1.16-.5,3.47-.9,5.9-1.06v-1.08ZM111.85,221.89c-1.35.05-3.6.34-4.74.85-1.08.48-1.53,1.14-1.53,2.06,0,1.4.98,2.09,2.46,2.09,1.75,0,3.23-1.11,3.65-2.86.11-.45.16-1.06.16-1.46v-.69Z"/>
        <path class="cls-1" d="M119.33,228.32c0,2.12-.37,2.75-1.35,3.78l-1.08-.79c.74-.77.98-1.35.98-2.94h-.9v-3.23h2.35v3.17Z"/>
        <path class="cls-1" d="M140.78,215.04c-.66-2.46-2.22-3.7-4.58-3.7-3.7,0-6.03,2.67-6.03,7.38s2.38,7.96,6.03,7.96c2.3,0,4.29-1.11,4.92-3.89l2.22.79c-1.19,3.52-3.92,5.16-7.35,5.16-5.08,0-8.2-3.76-8.2-9.81s3.49-9.6,8.41-9.6c3.33,0,5.87,1.67,6.77,4.89l-2.2.82Z"/>
        <path class="cls-1" d="M147.47,215.3v7.83c0,.98.13,1.88.53,2.51.42.66,1.24,1.08,2.3,1.08.93,0,1.77-.42,2.35-1.06.71-.79,1.14-1.93,1.14-3.17v-7.2h2.09v13.07h-2.09v-1.93c-.95,1.27-2.35,2.14-4.18,2.14-1.59,0-2.7-.58-3.41-1.56-.58-.82-.79-2.14-.79-3.41v-8.31h2.06Z"/>
        <path class="cls-1" d="M159.53,228.37v-18.68h2.09v18.68h-2.09Z"/>
        <path class="cls-1" d="M170.72,228.29c-.53.18-1.27.26-1.8.26-1.77,0-2.96-.64-2.96-3.28v-8.23h-2.33v-1.75h2.35v-4.23h2.06v4.23h2.62v1.75h-2.62v7.7c0,1.46.42,2.06,1.48,2.06.4,0,.71-.08,1.19-.26v1.75Z"/>
        <path class="cls-1" d="M174.77,215.3v7.83c0,.98.13,1.88.53,2.51.42.66,1.24,1.08,2.3,1.08.93,0,1.77-.42,2.35-1.06.71-.79,1.14-1.93,1.14-3.17v-7.2h2.09v13.07h-2.09v-1.93c-.95,1.27-2.35,2.14-4.18,2.14-1.59,0-2.7-.58-3.41-1.56-.58-.82-.79-2.14-.79-3.41v-8.31h2.06Z"/>
        <path class="cls-1" d="M186.83,228.37v-13.07h1.98v2.12c.79-1.56,1.98-2.27,3.7-2.27.45,0,.74.05,1.19.16v2.22c-.42-.24-.85-.34-1.43-.34-1.19,0-2.22.48-2.86,1.67-.32.58-.5,1.59-.5,2.99v6.53h-2.09Z"/>
        <path class="cls-1" d="M202.36,219.27c0-1.69-.9-2.54-2.7-2.54-2.01,0-2.91.85-3.07,2.7l-2.09-.24c.21-2.72,2.3-4.23,5.26-4.23,1.64,0,2.86.45,3.62,1.3.71.74.98,1.85.98,3.84v4.21c0,.55.03,1.37.08,1.75.08.56.45.77,1.11.77.16,0,.34-.03.5-.05v1.59c-.34.05-.74.08-1.08.08-1.75,0-2.41-.66-2.54-2.01-.9,1.4-2.43,2.17-4.34,2.17-2.27,0-4.07-1.48-4.07-3.68,0-1.77.93-2.83,2.43-3.49,1.16-.5,3.47-.9,5.9-1.06v-1.08ZM202.36,221.89c-1.35.05-3.6.34-4.74.85-1.08.48-1.53,1.14-1.53,2.06,0,1.4.98,2.09,2.46,2.09,1.75,0,3.23-1.11,3.65-2.86.11-.45.16-1.06.16-1.46v-.69Z"/>
        <path class="cls-1" d="M224.44,224.98c-.77,2.38-2.91,3.7-5.42,3.7-4.07,0-6.19-2.78-6.19-7.01s2.46-6.72,6.06-6.72,5.56,2.49,5.58,7.2h-9.52c0,2.86,1.45,4.76,4.13,4.76,1.59,0,2.99-.58,3.52-2.54l1.85.61ZM218.83,216.68c-1.98,0-3.57,1.19-3.86,3.84h7.35c-.19-2.78-1.56-3.84-3.49-3.84Z"/>
        <path class="cls-1" d="M233.17,228.37v-18.68h2.25v18.68h-2.25Z"/>
        <path class="cls-1" d="M247.64,228.37v-7.88c0-1.06-.11-1.96-.53-2.59-.4-.61-1.08-.95-2.17-.95-.87,0-1.9.45-2.65,1.35-.93,1.11-.98,2.49-.98,3.81v6.27h-2.09v-13.07h2.09v2.04c.9-1.4,2.57-2.25,4.39-2.25s2.75.69,3.39,1.75c.48.79.61,1.75.61,3.54v7.99h-2.06Z"/>
        <path class="cls-1" d="M252.4,221.76c0-4.18,2.35-6.8,6.24-6.8,3.68,0,5.87,2.65,5.87,6.96s-2.33,6.77-6.03,6.77c-3.97,0-6.08-2.7-6.08-6.93ZM258.56,216.73c-2.43,0-3.99,1.9-3.99,4.87,0,3.31,1.53,5.32,3.89,5.32s3.89-1.88,3.89-5-1.43-5.18-3.78-5.18Z"/>
        <path class="cls-1" d="M270.25,228.37l-5-13.07h2.33c1.96,5.4,2.94,8.31,3.81,10.85.79-2.38,1.8-5.5,3.73-10.85h2.25l-4.95,13.07h-2.17Z"/>
        <path class="cls-1" d="M286.2,219.27c0-1.69-.9-2.54-2.7-2.54-2.01,0-2.91.85-3.07,2.7l-2.09-.24c.21-2.72,2.3-4.23,5.26-4.23,1.64,0,2.86.45,3.62,1.3.71.74.98,1.85.98,3.84v4.21c0,.55.03,1.37.08,1.75.08.56.45.77,1.11.77.16,0,.34-.03.5-.05v1.59c-.34.05-.74.08-1.08.08-1.75,0-2.41-.66-2.54-2.01-.9,1.4-2.43,2.17-4.34,2.17-2.27,0-4.07-1.48-4.07-3.68,0-1.77.93-2.83,2.43-3.49,1.16-.5,3.47-.9,5.9-1.06v-1.08ZM286.2,221.89c-1.35.05-3.6.34-4.74.85-1.08.48-1.53,1.14-1.53,2.06,0,1.4.98,2.09,2.46,2.09,1.75,0,3.23-1.11,3.65-2.86.11-.45.16-1.06.16-1.46v-.69Z"/>
        <path class="cls-1" d="M299.93,219.38c-.45-1.98-1.64-2.62-3.02-2.62-2.35,0-3.84,1.83-3.84,5.08s1.51,5.08,3.99,5.08c1.67,0,2.62-.87,2.96-2.49l1.93.64c-.74,2.09-2.22,3.62-5.11,3.62-3.54,0-5.93-2.57-5.93-6.88s2.3-6.82,6.08-6.82c2.43,0,4.29,1.19,4.87,3.76l-1.96.64Z"/>
        <path class="cls-1" d="M304.11,212.05v-2.35h2.14v2.35h-2.14ZM304.13,228.37v-13.07h2.09v13.07h-2.09Z"/>
        <path class="cls-1" d="M309.08,221.76c0-4.18,2.35-6.8,6.24-6.8,3.68,0,5.87,2.65,5.87,6.96s-2.33,6.77-6.03,6.77c-3.97,0-6.08-2.7-6.08-6.93ZM315.24,216.73c-2.43,0-3.99,1.9-3.99,4.87,0,3.31,1.53,5.32,3.89,5.32s3.89-1.88,3.89-5-1.43-5.18-3.78-5.18ZM313.81,213.35l2.01-3.91h2.54l-2.96,3.91h-1.59Z"/>
        <path class="cls-1" d="M332.46,228.37v-7.88c0-1.06-.11-1.96-.53-2.59-.4-.61-1.08-.95-2.17-.95-.87,0-1.9.45-2.65,1.35-.93,1.11-.98,2.49-.98,3.81v6.27h-2.09v-13.07h2.09v2.04c.9-1.4,2.57-2.25,4.39-2.25s2.75.69,3.39,1.75c.48.79.61,1.75.61,3.54v7.99h-2.06Z"/>
      </g>
      <g>
        <path class="cls-1" d="M288.91,112.19h-7.09l-1.6,4.39h-2.51l6.09-15.7h3.19l6.07,15.7h-2.56l-1.6-4.39ZM282.48,110.36h5.75l-.71-1.94c-.65-1.75-1.33-3.77-1.83-5.41h-.65c-.52,1.67-1.2,3.66-1.86,5.41l-.71,1.94Z"/>
        <path class="cls-1" d="M293.31,112.87l2.07-.42c.42,1.6,1.31,2.72,3.61,2.72,1.73,0,2.59-.65,2.62-1.83,0-1.15-.81-1.65-3.37-2.09-3.17-.58-4.34-1.7-4.34-3.64,0-2.14,1.57-3.56,4.68-3.56s4.34,1.39,4.89,3.58l-2.09.44c-.39-1.7-1.26-2.33-2.85-2.33s-2.43.65-2.43,1.73c0,.97.63,1.65,3.03,2.04,3.51.63,4.68,1.78,4.68,3.74,0,2.17-1.44,3.64-4.84,3.64-3.82,0-5.15-1.6-5.65-4.03Z"/>
        <path class="cls-1" d="M305.42,110.44c0-4,2.41-6.38,6.12-6.38s6.12,2.38,6.12,6.38-2.25,6.46-6.12,6.46-6.12-2.49-6.12-6.46ZM307.7,110.41c0,2.75,1.23,4.5,3.82,4.5s3.87-1.75,3.87-4.5-1.33-4.39-3.85-4.39-3.85,1.65-3.85,4.39Z"/>
        <path class="cls-1" d="M325.38,106.07c-2.3,0-3.71,1.49-3.71,4.42,0,2.69,1.33,4.39,3.82,4.39,2.25,0,2.98-1.36,3.43-3.01l2.09.55c-.55,2.8-2.22,4.47-5.49,4.47-3.85,0-6.17-2.33-6.17-6.38s2.43-6.46,6.09-6.46c3.43,0,5.02,1.62,5.52,4.5l-2.12.45c-.42-1.81-1.26-2.93-3.45-2.93Z"/>
        <path class="cls-1" d="M333.57,102.01v-2.07h2.62v2.07h-2.62ZM333.73,116.58v-12.22h2.28v12.22h-2.28Z"/>
        <path class="cls-1" d="M347.1,113.68h-.24c-.6,2.01-2.17,3.17-4.34,3.17-2.3,0-3.79-1.05-3.79-3.4,0-2.12,1.36-3.66,4.34-3.66h3.92v-.99c0-1.83-.71-2.82-2.69-2.82-1.65,0-2.56.81-2.96,2.43l-2.15-.52c.5-2.35,2.25-3.79,5.18-3.79,3.4,0,4.89,1.65,4.89,4.68v7.82h-2.17v-2.9ZM346.99,112.03v-.68h-3.58c-1.6,0-2.51.63-2.51,1.83,0,.97.6,1.83,2.41,1.83,2.25,0,3.69-1.26,3.69-2.98Z"/>
        <path class="cls-1" d="M357.64,106.07c-2.3,0-3.71,1.49-3.71,4.42,0,2.69,1.33,4.39,3.82,4.39,2.25,0,2.98-1.36,3.43-3.01l2.09.55c-.55,2.8-2.22,4.47-5.49,4.47-3.85,0-6.17-2.33-6.17-6.38s2.43-6.46,6.09-6.46c3.43,0,5.02,1.62,5.52,4.5l-2.12.45c-.42-1.81-1.26-2.93-3.45-2.93Z"/>
        <path class="cls-1" d="M365.83,102.01v-2.07h2.62v2.07h-2.62ZM365.99,116.58v-12.22h2.28v12.22h-2.28Z"/>
        <path class="cls-1" d="M370.96,110.44c0-4,2.41-6.38,6.12-6.38s6.12,2.38,6.12,6.38-2.25,6.46-6.12,6.46-6.12-2.49-6.12-6.46ZM373.24,110.41c0,2.75,1.23,4.5,3.82,4.5s3.87-1.75,3.87-4.5-1.33-4.39-3.85-4.39-3.85,1.65-3.85,4.39ZM374.49,101.83l6.04-3.53.89,1.67-6.36,2.98-.58-1.12Z"/>
        <path class="cls-1" d="M387.91,116.58h-2.28v-12.22h2.22v3.17h.24c.68-2.17,2.3-3.48,4.42-3.48,2.72,0,3.95,1.78,3.95,4.45v8.08h-2.28v-7.53c0-1.67-.68-2.93-2.64-2.93-2.17,0-3.64,1.39-3.64,3.48v6.98Z"/>
        <path class="cls-1" d="M413.13,113.31h-.16c-.6,2.09-2.12,3.58-4.42,3.58-2.98,0-4.68-2.25-4.68-6.38s1.75-6.46,4.73-6.46c2.41,0,3.77,1.46,4.37,3.56h.16v-7.82h2.28v16.79h-2.28v-3.27ZM413.13,110.99v-.94c0-2.33-1.39-3.92-3.58-3.92s-3.43,1.41-3.43,4.4,1.1,4.34,3.43,4.34c2.17,0,3.58-1.49,3.58-3.87Z"/>
        <path class="cls-1" d="M417.84,110.57c0-4.08,2.38-6.51,6.07-6.51s5.49,2.25,5.49,5.62c0,.37-.03.91-.08,1.46h-9.21c.18,2.48,1.49,3.85,3.85,3.85,2.2,0,2.96-1.1,3.35-2.46l1.99.55c-.6,2.33-2.17,3.79-5.34,3.79-3.79,0-6.12-2.25-6.12-6.3ZM420.15,109.49h7.14c-.1-2.33-1.18-3.64-3.43-3.64s-3.45,1.2-3.71,3.64Z"/>
        <path class="cls-1" d="M436.18,108.71c0-5,2.82-8.14,7.53-8.14,4,0,6.44,2.22,7.01,5.91l-2.28.44c-.55-2.72-2.04-4.24-4.76-4.24-3.51,0-5.1,2.46-5.1,6.02,0,3.74,1.6,6.09,5.05,6.09,2.93,0,4.34-1.57,4.89-4.37l2.28.42c-.55,3.74-3.01,6.04-7.17,6.04-4.79,0-7.46-3.19-7.46-8.19Z"/>
        <path class="cls-1" d="M453.32,102.01v-2.07h2.62v2.07h-2.62ZM453.48,116.58v-12.22h2.28v12.22h-2.28Z"/>
        <path class="cls-1" d="M458.45,110.57c0-4.08,2.38-6.51,6.07-6.51s5.49,2.25,5.49,5.62c0,.37-.03.91-.08,1.46h-9.21c.18,2.48,1.49,3.85,3.85,3.85,2.2,0,2.96-1.1,3.35-2.46l1.99.55c-.6,2.33-2.17,3.79-5.34,3.79-3.79,0-6.12-2.25-6.12-6.3ZM460.75,109.49h7.14c-.1-2.33-1.18-3.64-3.43-3.64s-3.45,1.2-3.71,3.64Z"/>
        <path class="cls-1" d="M474.75,116.58h-2.28v-12.22h2.22v3.17h.24c.68-2.17,2.3-3.48,4.42-3.48,2.72,0,3.95,1.78,3.95,4.45v8.08h-2.28v-7.53c0-1.67-.68-2.93-2.64-2.93-2.17,0-3.64,1.39-3.64,3.48v6.98Z"/>
        <path class="cls-1" d="M487.15,106.25h-1.86v-1.88h1.86v-3.43h2.28v3.43h3.9v1.88h-3.9v6.43c0,1.39.52,2.09,1.88,2.09.65,0,1.2-.13,1.86-.31l.29,2.01c-.84.26-1.49.42-2.62.42-2.56,0-3.69-1.67-3.69-3.95v-6.7Z"/>
        <path class="cls-1" d="M494.79,101.83l6.04-3.53.89,1.67-6.36,2.98-.58-1.12ZM496.17,116.58v-12.22h2.28v12.22h-2.28Z"/>
        <path class="cls-1" d="M505.59,104.37h3.71v1.88h-3.71v10.33h-2.28v-10.33h-2.2v-1.88h2.2v-.78c0-2.48,1.33-4.13,4.05-4.13.92,0,1.54.1,2.04.21l-.1,1.7c-.58-.08-1.07-.16-1.6-.16-1.49,0-2.12.84-2.12,2.43v.73Z"/>
        <path class="cls-1" d="M511.35,102.01v-2.07h2.62v2.07h-2.62ZM511.51,116.58v-12.22h2.28v12.22h-2.28Z"/>
        <path class="cls-1" d="M522.52,106.07c-2.3,0-3.71,1.49-3.71,4.42,0,2.69,1.33,4.39,3.82,4.39,2.25,0,2.98-1.36,3.43-3.01l2.09.55c-.55,2.8-2.22,4.47-5.49,4.47-3.85,0-6.17-2.33-6.17-6.38s2.43-6.46,6.09-6.46c3.43,0,5.02,1.62,5.52,4.5l-2.12.45c-.42-1.81-1.26-2.93-3.45-2.93Z"/>
        <path class="cls-1" d="M529.87,110.44c0-4,2.41-6.38,6.12-6.38s6.12,2.38,6.12,6.38-2.25,6.46-6.12,6.46-6.12-2.49-6.12-6.46ZM532.15,110.41c0,2.75,1.23,4.5,3.82,4.5s3.87-1.75,3.87-4.5-1.33-4.39-3.85-4.39-3.85,1.65-3.85,4.39Z"/>
        <path class="cls-1" d="M543.63,112.87l2.07-.42c.42,1.6,1.31,2.72,3.61,2.72,1.73,0,2.59-.65,2.62-1.83,0-1.15-.81-1.65-3.37-2.09-3.17-.58-4.34-1.7-4.34-3.64,0-2.14,1.57-3.56,4.68-3.56s4.34,1.39,4.89,3.58l-2.09.44c-.39-1.7-1.26-2.33-2.85-2.33s-2.43.65-2.43,1.73c0,.97.63,1.65,3.03,2.04,3.51.63,4.68,1.78,4.68,3.74,0,2.17-1.44,3.64-4.84,3.64-3.82,0-5.15-1.6-5.65-4.03Z"/>
        <path class="cls-1" d="M279.52,126.62h10.91v2.12h-8.5v4.55h7.64v2.09h-7.64v4.81h8.48v2.12h-10.88v-15.7Z"/>
        <path class="cls-1" d="M292.16,138.6l2.07-.42c.42,1.6,1.31,2.72,3.61,2.72,1.73,0,2.59-.65,2.62-1.83,0-1.15-.81-1.65-3.37-2.09-3.17-.58-4.34-1.7-4.34-3.64,0-2.14,1.57-3.56,4.68-3.56s4.34,1.39,4.89,3.58l-2.09.44c-.39-1.7-1.26-2.33-2.85-2.33s-2.43.65-2.43,1.73c0,.97.63,1.65,3.03,2.04,3.51.63,4.68,1.78,4.68,3.74,0,2.17-1.44,3.64-4.84,3.64-3.82,0-5.15-1.6-5.65-4.03Z"/>
        <path class="cls-1" d="M311.94,142.63c-2.38,0-3.87-1.52-4.47-3.61h-.16v7.3h-2.28v-16.22h2.28v3.22h.18c.6-2.09,1.99-3.53,4.34-3.53,3.06,0,4.73,2.3,4.73,6.43s-1.75,6.41-4.63,6.41ZM314.32,136.22c0-2.96-1.07-4.37-3.4-4.37-2.2,0-3.61,1.52-3.61,3.92v.94c0,2.3,1.41,3.9,3.61,3.9s3.4-1.46,3.4-4.39Z"/>
        <path class="cls-1" d="M326.64,139.41h-.24c-.6,2.01-2.17,3.17-4.34,3.17-2.3,0-3.79-1.05-3.79-3.4,0-2.12,1.36-3.66,4.34-3.66h3.92v-.99c0-1.83-.71-2.82-2.69-2.82-1.65,0-2.56.81-2.96,2.43l-2.15-.52c.5-2.35,2.25-3.79,5.18-3.79,3.4,0,4.89,1.65,4.89,4.68v7.82h-2.17v-2.9ZM326.54,137.76v-.68h-3.58c-1.6,0-2.51.63-2.51,1.83,0,.97.6,1.83,2.41,1.83,2.25,0,3.69-1.26,3.69-2.98Z"/>
        <path class="cls-1" d="M334.18,142.32h-2.28v-12.22h2.22v3.17h.24c.68-2.17,2.3-3.48,4.42-3.48,2.72,0,3.95,1.78,3.95,4.45v8.08h-2.28v-7.53c0-1.67-.68-2.93-2.64-2.93-2.17,0-3.64,1.39-3.64,3.48v6.98ZM339.07,126.65c.78,0,1.02-.81.97-2.46h1.18c.05.42.08.81.08,1.18,0,1.99-.86,2.93-2.09,2.93-1.91,0-2.28-2.56-3.58-2.56-.81,0-1.05.68-1.02,2.41h-1.15c-.05-.44-.08-.81-.08-1.15,0-1.96.84-2.9,2.12-2.9,2.07,0,2.35,2.56,3.58,2.56Z"/>
        <path class="cls-1" d="M345.06,136.17c0-4,2.41-6.38,6.12-6.38s6.12,2.38,6.12,6.38-2.25,6.46-6.12,6.46-6.12-2.49-6.12-6.46ZM347.34,136.14c0,2.75,1.23,4.5,3.82,4.5s3.87-1.75,3.87-4.5-1.33-4.39-3.85-4.39-3.85,1.65-3.85,4.39Z"/>
        <path class="cls-1" d="M362.14,142.32h-2.28v-16.79h2.28v16.79Z"/>
        <path class="cls-1" d="M364.71,136.3c0-4.08,2.38-6.51,6.07-6.51s5.49,2.25,5.49,5.62c0,.37-.03.91-.08,1.46h-9.21c.18,2.48,1.49,3.85,3.85,3.85,2.2,0,2.96-1.1,3.35-2.46l1.99.55c-.6,2.33-2.17,3.79-5.34,3.79-3.79,0-6.12-2.25-6.12-6.3ZM367.01,135.23h7.14c-.1-2.33-1.18-3.64-3.43-3.64s-3.45,1.2-3.71,3.64Z"/>
        <path class="cls-1" d="M377.82,138.6l2.07-.42c.42,1.6,1.31,2.72,3.61,2.72,1.73,0,2.59-.65,2.62-1.83,0-1.15-.81-1.65-3.37-2.09-3.17-.58-4.34-1.7-4.34-3.64,0-2.14,1.57-3.56,4.68-3.56s4.34,1.39,4.89,3.58l-2.09.44c-.39-1.7-1.26-2.33-2.85-2.33s-2.43.65-2.43,1.73c0,.97.63,1.65,3.03,2.04,3.51.63,4.68,1.78,4.68,3.74,0,2.17-1.44,3.64-4.84,3.64-3.82,0-5.15-1.6-5.65-4.03Z"/>
        <path class="cls-1" d="M395,136.3c0-4.08,2.38-6.51,6.07-6.51s5.49,2.25,5.49,5.62c0,.37-.03.91-.08,1.46h-9.21c.18,2.48,1.49,3.85,3.85,3.85,2.2,0,2.96-1.1,3.35-2.46l1.99.55c-.6,2.33-2.17,3.79-5.34,3.79-3.79,0-6.12-2.25-6.12-6.3ZM397.31,135.23h7.14c-.1-2.33-1.18-3.64-3.43-3.64s-3.45,1.2-3.71,3.64Z"/>
        <path class="cls-1" d="M411.3,142.32h-2.28v-12.22h2.22v3.17h.24c.68-2.17,2.3-3.48,4.42-3.48,2.72,0,3.95,1.78,3.95,4.45v8.08h-2.28v-7.53c0-1.67-.68-2.93-2.64-2.93-2.17,0-3.64,1.39-3.64,3.48v6.98Z"/>
        <path class="cls-1" d="M428.18,126.62h6.38c3.58,0,5.23,1.36,5.23,4,0,2.01-1.15,3.19-3.09,3.66v.24c2.64.29,3.85,1.36,3.85,3.56,0,2.48-1.57,4.24-5.44,4.24h-6.93v-15.7ZM430.58,128.53v5.07h3.9c1.78,0,2.98-.71,2.98-2.62,0-1.65-.81-2.46-2.83-2.46h-4.05ZM430.58,135.38v5.05h4.45c2.17,0,3.14-1.02,3.14-2.54,0-1.6-.84-2.51-3.27-2.51h-4.32Z"/>
        <path class="cls-1" d="M442.88,142.32v-12.22h2.2v3.45l.18.03c.63-2.67,1.88-3.61,3.77-3.61h.47v2.51h-.63c-2.64,0-3.71,1.05-3.71,3.79v6.04h-2.28Z"/>
        <path class="cls-1" d="M459.18,139.41h-.24c-.6,2.01-2.17,3.17-4.34,3.17-2.3,0-3.79-1.05-3.79-3.4,0-2.12,1.36-3.66,4.34-3.66h3.92v-.99c0-1.83-.71-2.82-2.69-2.82-1.65,0-2.56.81-2.96,2.43l-2.15-.52c.5-2.35,2.25-3.79,5.18-3.79,3.4,0,4.89,1.65,4.89,4.68v7.82h-2.17v-2.9ZM459.07,137.76v-.68h-3.58c-1.6,0-2.51.63-2.51,1.83,0,.97.6,1.83,2.41,1.83,2.25,0,3.69-1.26,3.69-2.98Z"/>
        <path class="cls-1" d="M463.52,138.6l2.07-.42c.42,1.6,1.31,2.72,3.61,2.72,1.73,0,2.59-.65,2.62-1.83,0-1.15-.81-1.65-3.37-2.09-3.17-.58-4.34-1.7-4.34-3.64,0-2.14,1.57-3.56,4.68-3.56s4.34,1.39,4.89,3.58l-2.09.44c-.39-1.7-1.26-2.33-2.85-2.33s-2.43.65-2.43,1.73c0,.97.63,1.65,3.03,2.04,3.51.63,4.68,1.78,4.68,3.74,0,2.17-1.44,3.64-4.84,3.64-3.82,0-5.15-1.6-5.65-4.03Z"/>
        <path class="cls-1" d="M476.47,127.75v-2.07h2.62v2.07h-2.62ZM476.63,142.32v-12.22h2.28v12.22h-2.28Z"/>
        <path class="cls-1" d="M484.77,142.32h-2.28v-16.79h2.28v16.79Z"/>
      </g>
    </g>
  </g>
</svg>