<?xml version="1.0" encoding="UTF-8"?>
<svg id="Camada_2" data-name="Camada 2" xmlns="http://www.w3.org/2000/svg" viewBox="0 0 477.03 233.42">
  <defs>
    <style>
      .cls-1 {
        fill: none;
      }

      .cls-2 {
        fill: #fff;
      }
    </style>
  </defs>
  <g id="conteúdo">
    <g>
      <rect class="cls-1" width="477.03" height="233.42"/>
      <g>
        <g>
          <path class="cls-2" d="M30.58,30.58h6.67c3.45,0,5.37,1.92,5.37,5.37v.77h-12.03v-6.13ZM30.58,85.76h12.03v6.13h-12.03v-6.13ZM42.62,80.4v-43.69h1.15c3.45,0,5.37,1.92,5.37,5.37v43.69h-1.15c-3.45,0-5.37-1.91-5.37-5.36ZM49.13,30.58h12.03v6.13h-12.03v-6.13ZM49.13,85.76h12.03v6.13h-6.67c-3.45,0-5.37-1.92-5.37-5.37v-.77Z"/>
          <path class="cls-2" d="M70.35,30.58h6.52v49.05h-1.15c-3.45,0-5.37-1.92-5.37-5.37V30.58ZM76.87,79.63h.77c3.45,0,5.37,1.92,5.37,5.37v.77h-.77c-3.45,0-5.37-1.91-5.37-5.36v-.77ZM83,85.76h13.03v.77c0,3.45-1.92,5.37-5.37,5.37h-2.3c-3.45,0-5.37-1.92-5.37-5.37v-.77ZM102.16,80.4c0,3.45-1.92,5.36-5.37,5.36h-.77v-.77c0-3.45,1.92-5.37,5.37-5.37h.77v.77ZM102.16,30.58h6.52v43.69c0,3.45-1.92,5.37-5.37,5.37h-1.15V30.58Z"/>
        </g>
        <g>
          <path class="cls-2" d="M131.46,62.92c0-10.88,6.34-17.36,16.17-17.36s14.64,6,14.64,14.99c0,.98-.07,2.44-.21,3.9h-24.54c.49,6.62,3.97,10.25,10.25,10.25,5.86,0,7.88-2.93,8.92-6.55l5.3,1.46c-1.6,6.2-5.79,10.11-14.22,10.11-10.11,0-16.31-6-16.31-16.8ZM137.59,60.06h19.03c-.28-6.2-3.14-9.69-9.13-9.69s-9.2,3.21-9.9,9.69Z"/>
          <path class="cls-2" d="M174.89,78.95h-6.07v-32.56h5.93v8.44h.63c1.81-5.79,6.14-9.27,11.78-9.27,7.25,0,10.53,4.74,10.53,11.85v21.54h-6.07v-20.08c0-4.46-1.81-7.81-7.04-7.81-5.79,0-9.69,3.7-9.69,9.27v18.61Z"/>
          <path class="cls-2" d="M219.99,50.93c-6.14,0-9.9,3.97-9.9,11.78,0,7.18,3.56,11.71,10.18,11.71,6,0,7.95-3.63,9.13-8.02l5.58,1.46c-1.46,7.46-5.93,11.92-14.64,11.92-10.25,0-16.45-6.21-16.45-17.01s6.48-17.22,16.24-17.22c9.13,0,13.39,4.32,14.71,11.99l-5.65,1.18c-1.12-4.81-3.35-7.81-9.2-7.81Z"/>
          <path class="cls-2" d="M264.26,70.45h-.56c-1.81,5.79-6.14,9.34-11.78,9.34-7.32,0-10.6-4.81-10.6-11.92v-21.47h6.07v20.01c0,4.53,1.88,7.81,7.11,7.81,5.79,0,9.62-3.63,9.62-9.2v-18.61h6.07v32.56h-5.93v-8.51Z"/>
          <path class="cls-2" d="M276.67,62.92c0-10.88,6.34-17.36,16.17-17.36s14.64,6,14.64,14.99c0,.98-.07,2.44-.21,3.9h-24.54c.49,6.62,3.97,10.25,10.25,10.25,5.86,0,7.88-2.93,8.92-6.55l5.3,1.46c-1.6,6.2-5.79,10.11-14.22,10.11-10.11,0-16.31-6-16.31-16.8ZM282.8,60.06h19.03c-.28-6.2-3.14-9.69-9.13-9.69s-9.2,3.21-9.9,9.69Z"/>
          <path class="cls-2" d="M320.1,78.95h-6.07v-32.56h5.93v8.44h.63c1.81-5.79,6.14-9.27,11.78-9.27,7.25,0,10.53,4.74,10.53,11.85v21.54h-6.07v-20.08c0-4.46-1.81-7.81-7.04-7.81-5.79,0-9.69,3.7-9.69,9.27v18.61Z"/>
          <path class="cls-2" d="M353.14,51.42h-4.95v-5.02h4.95v-9.13h6.07v9.13h10.39v5.02h-10.39v17.15c0,3.7,1.39,5.58,5.02,5.58,1.74,0,3.21-.35,4.95-.84l.77,5.37c-2.23.7-3.97,1.12-6.97,1.12-6.83,0-9.83-4.46-9.83-10.53v-17.85Z"/>
          <path class="cls-2" d="M375.66,78.95v-32.56h5.86v9.2l.49.07c1.67-7.11,5.02-9.62,10.04-9.62h1.25v6.69h-1.67c-7.04,0-9.9,2.79-9.9,10.11v16.11h-6.07Z"/>
          <path class="cls-2" d="M396.71,62.57c0-10.67,6.41-17.01,16.31-17.01s16.31,6.34,16.31,17.01-6,17.22-16.31,17.22-16.31-6.62-16.31-17.22ZM402.78,62.5c0,7.32,3.28,11.99,10.18,11.99s10.32-4.67,10.32-11.99-3.56-11.71-10.25-11.71-10.25,4.39-10.25,11.71Z"/>
        </g>
        <g>
          <path class="cls-2" d="M51.37,130.5h-.63c-1.6,5.37-5.79,8.44-11.57,8.44-6.14,0-10.11-2.79-10.11-9.06,0-5.65,3.63-9.76,11.57-9.76h10.46v-2.65c0-4.88-1.88-7.53-7.18-7.53-4.39,0-6.83,2.16-7.88,6.48l-5.72-1.39c1.32-6.27,6-10.11,13.8-10.11,9.06,0,13.04,4.39,13.04,12.48v20.85h-5.79v-7.74ZM51.09,126.11v-1.81h-9.55c-4.25,0-6.69,1.67-6.69,4.88,0,2.58,1.6,4.88,6.41,4.88,6,0,9.83-3.35,9.83-7.95Z"/>
          <path class="cls-2" d="M79.46,110.22c-6.14,0-9.9,3.97-9.9,11.78,0,7.18,3.56,11.71,10.18,11.71,6,0,7.95-3.63,9.13-8.02l5.58,1.46c-1.46,7.46-5.93,11.92-14.64,11.92-10.25,0-16.45-6.21-16.45-17.01s6.48-17.22,16.24-17.22c9.13,0,13.39,4.32,14.71,11.99l-5.65,1.18c-1.12-4.81-3.35-7.81-9.2-7.81Z"/>
          <path class="cls-2" d="M99.05,122.21c0-10.88,6.34-17.36,16.17-17.36s14.64,6,14.64,14.99c0,.98-.07,2.44-.21,3.9h-24.54c.49,6.62,3.97,10.25,10.25,10.25,5.86,0,7.88-2.93,8.92-6.55l5.3,1.46c-1.6,6.2-5.79,10.11-14.22,10.11-10.11,0-16.31-6-16.31-16.8ZM105.18,119.35h19.03c-.28-6.2-3.14-9.69-9.13-9.69s-9.2,3.21-9.9,9.69Z"/>
          <path class="cls-2" d="M142.48,114.26h.49c1.6-5.58,5.3-9.41,11.57-9.41,8.16,0,12.62,6.14,12.62,17.15s-4.67,17.08-12.34,17.08c-6.34,0-10.32-4.04-11.92-9.62h-.42v8.78h-6.07v-44.76h6.07v20.78ZM161.16,122c0-7.88-2.86-11.64-9.06-11.64-5.86,0-9.62,4.04-9.62,10.46v2.51c0,6.13,3.77,10.39,9.62,10.39s9.06-3.9,9.06-11.71Z"/>
          <path class="cls-2" d="M173.71,138.24v-32.56h5.86v9.2l.49.07c1.67-7.11,5.02-9.62,10.04-9.62h1.25v6.69h-1.67c-7.04,0-9.9,2.79-9.9,10.11v16.11h-6.07Z"/>
          <path class="cls-2" d="M217.14,130.5h-.63c-1.6,5.37-5.79,8.44-11.57,8.44-6.14,0-10.11-2.79-10.11-9.06,0-5.65,3.63-9.76,11.57-9.76h10.46v-2.65c0-4.88-1.88-7.53-7.18-7.53-4.39,0-6.83,2.16-7.88,6.48l-5.72-1.39c1.32-6.27,6-10.11,13.8-10.11,9.06,0,13.04,4.39,13.04,12.48v20.85h-5.79v-7.74ZM216.86,126.11v-1.81h-9.55c-4.25,0-6.69,1.67-6.69,4.88,0,2.58,1.6,4.88,6.41,4.88,6,0,9.83-3.35,9.83-7.95Z"/>
        </g>
        <g>
          <path class="cls-2" d="M30.88,178.69v-14.07h9.78v2.17h-7.23v3.59h6.67v2.17h-6.67v3.95h7.63v2.19h-10.18Z"/>
          <path class="cls-2" d="M43.83,175.54c.52,1.02,1.43,1.61,2.53,1.61,1.02,0,1.57-.44,1.57-1.04,0-.66-.34-.94-1.83-1.42l-1.06-.34c-1.53-.48-2.51-1.37-2.51-2.89s1.4-2.99,3.85-2.99c1.57,0,3.03.6,3.91,1.99l-1.73,1.18c-.5-.88-1.26-1.39-2.21-1.39s-1.47.4-1.47.98.32.88,1.59,1.28l1.06.32c1.75.56,2.75,1.37,2.75,2.97,0,1.83-1.53,3.17-4,3.17-2.03,0-3.41-.98-4.24-2.23l1.81-1.2Z"/>
          <path class="cls-2" d="M56.84,178.65c-.52.14-1.16.22-1.73.22-.98,0-1.63-.24-2.03-.72-.42-.48-.56-1.18-.56-2.09v-5.42h-1.55v-1.87h1.59v-3.23h2.31v3.23h1.93v1.87h-1.93v4.96c0,1.02.3,1.37,1.02,1.37.28,0,.64-.06.96-.18v1.85Z"/>
          <path class="cls-2" d="M58.26,178.69v-9.92h2.23v1.53c.6-1.08,1.37-1.65,2.75-1.65.32,0,.56.04.86.12v2.35c-.38-.2-.68-.28-1.12-.28-.78,0-1.43.34-1.87.98-.34.5-.52,1.2-.52,2.25v4.62h-2.33Z"/>
          <path class="cls-2" d="M71.05,171.96c0-.56-.12-.94-.38-1.2-.28-.28-.76-.42-1.37-.42-1.22,0-1.75.62-1.87,1.71l-2.23-.2c.16-2.15,1.75-3.35,4.28-3.35,1.35,0,2.31.32,2.97.96.62.58.84,1.39.84,2.95v3.65c0,1.18.08,2.15.28,2.63h-2.25c-.08-.32-.2-.94-.2-1.24-.76.92-1.83,1.41-3.25,1.41-1.81,0-3.09-1.14-3.09-2.91,0-1.28.64-2.11,1.81-2.65.98-.44,2.89-.72,4.46-.82v-.54ZM71.05,174.05c-1.14.06-2.47.26-3.17.6-.62.28-.86.66-.86,1.22,0,.72.48,1.26,1.51,1.26.9,0,1.63-.38,2.07-1.04.32-.46.42-1.02.44-1.57v-.46Z"/>
          <path class="cls-2" d="M80.47,178.65c-.52.14-1.16.22-1.73.22-.98,0-1.63-.24-2.03-.72-.42-.48-.56-1.18-.56-2.09v-5.42h-1.55v-1.87h1.59v-3.23h2.31v3.23h1.93v1.87h-1.93v4.96c0,1.02.3,1.37,1.02,1.37.28,0,.64-.06.96-.18v1.85Z"/>
          <path class="cls-2" d="M90.57,176.2c-.74,1.79-2.25,2.79-4.32,2.79-3.19,0-4.9-2.07-4.9-5.36s1.91-5.14,4.8-5.14c3.15,0,4.46,2.29,4.48,5.84h-6.93c.08,1.71,1.02,2.69,2.59,2.69,1.02,0,1.87-.4,2.23-1.53l2.05.72ZM88.26,172.66c-.08-1.55-.9-2.35-2.17-2.35s-2.21.8-2.37,2.35h4.54Z"/>
          <path class="cls-2" d="M98.82,177.32c-.7.86-1.65,1.28-2.93,1.28-2.43,0-3.99-1.85-3.99-4.98s1.67-5,4.12-5c1.37,0,2.33.5,2.89,1.39v-1.22h2.31v9.25c0,2.05-.48,3.35-1.53,4.08-.78.56-1.91.8-3.19.8-2.41,0-3.95-1.06-4.38-3.11l2.45-.44c.18,1.1.92,1.65,1.99,1.65.96,0,1.55-.28,1.89-.84.28-.42.36-1.1.36-1.93v-.94ZM96.71,170.54c-1.47,0-2.39,1.12-2.39,3.05,0,2.03.9,3.19,2.31,3.19s2.23-.96,2.25-2.97c0-2.03-.74-3.27-2.17-3.27Z"/>
          <path class="cls-2" d="M103.64,166.82v-2.19h2.37v2.19h-2.37ZM106.01,178.69h-2.35v-9.92h2.35v9.92Z"/>
          <path class="cls-2" d="M114.08,171.96c0-.56-.12-.94-.38-1.2-.28-.28-.76-.42-1.37-.42-1.22,0-1.75.62-1.87,1.71l-2.23-.2c.16-2.15,1.75-3.35,4.28-3.35,1.35,0,2.31.32,2.97.96.62.58.84,1.39.84,2.95v3.65c0,1.18.08,2.15.28,2.63h-2.25c-.08-.32-.2-.94-.2-1.24-.76.92-1.83,1.41-3.25,1.41-1.81,0-3.09-1.14-3.09-2.91,0-1.28.64-2.11,1.81-2.65.98-.44,2.89-.72,4.46-.82v-.54ZM114.08,174.05c-1.14.06-2.47.26-3.17.6-.62.28-.86.66-.86,1.22,0,.72.48,1.26,1.51,1.26.9,0,1.63-.38,2.07-1.04.32-.46.42-1.02.44-1.57v-.46Z"/>
          <path class="cls-2" d="M119.56,175.54c.52,1.02,1.43,1.61,2.53,1.61,1.02,0,1.57-.44,1.57-1.04,0-.66-.34-.94-1.83-1.42l-1.06-.34c-1.53-.48-2.51-1.37-2.51-2.89s1.4-2.99,3.85-2.99c1.57,0,3.03.6,3.91,1.99l-1.73,1.18c-.5-.88-1.26-1.39-2.21-1.39s-1.47.4-1.47.98.32.88,1.59,1.28l1.06.32c1.75.56,2.75,1.37,2.75,2.97,0,1.83-1.53,3.17-4,3.17-2.03,0-3.41-.98-4.24-2.23l1.81-1.2Z"/>
          <path class="cls-2" d="M138.62,178.69v-1.39c-.64.94-1.57,1.59-2.97,1.59-2.29,0-3.99-1.75-3.99-5.2,0-3.25,1.83-5.12,4.12-5.12,1.47,0,2.29.54,2.83,1.3v-5.24h2.27v14.07h-2.27ZM136.37,170.5c-1.37,0-2.31,1.06-2.31,3.17,0,1.99.84,3.27,2.21,3.27s2.35-1.08,2.35-3.19c0-1.99-.86-3.25-2.25-3.25Z"/>
          <path class="cls-2" d="M152.01,176.2c-.74,1.79-2.25,2.79-4.32,2.79-3.19,0-4.9-2.07-4.9-5.36s1.91-5.14,4.8-5.14c3.15,0,4.46,2.29,4.48,5.84h-6.93c.08,1.71,1.02,2.69,2.59,2.69,1.02,0,1.87-.4,2.23-1.53l2.05.72ZM149.7,172.66c-.08-1.55-.9-2.35-2.17-2.35s-2.21.8-2.37,2.35h4.54Z"/>
          <path class="cls-2" d="M167.45,169.03c-.38-1.53-1.35-2.47-2.89-2.47-2.57,0-3.95,1.87-3.95,4.9,0,3.21,1.45,5.28,3.95,5.28,1.55,0,2.75-.88,3.13-2.59l2.43.88c-.88,2.59-2.95,3.99-5.66,3.99-4.04,0-6.5-2.83-6.5-7.45s2.65-7.25,6.64-7.25c2.79,0,4.62,1.47,5.34,3.81l-2.49.92Z"/>
          <path class="cls-2" d="M176,178.97c-3.11,0-4.86-1.95-4.86-5.26s1.93-5.22,5-5.22,4.72,1.97,4.72,5.34-1.95,5.14-4.86,5.14ZM176.08,170.44c-1.47,0-2.55,1.14-2.55,3.21,0,2.25,1.04,3.37,2.49,3.37s2.49-1.02,2.49-3.25-.96-3.33-2.43-3.33Z"/>
          <path class="cls-2" d="M187.08,178.97c-3.11,0-4.86-1.95-4.86-5.26s1.93-5.22,5-5.22,4.72,1.97,4.72,5.34-1.95,5.14-4.86,5.14ZM187.16,170.44c-1.47,0-2.55,1.14-2.55,3.21,0,2.25,1.04,3.37,2.49,3.37s2.49-1.02,2.49-3.25-.96-3.33-2.43-3.33Z"/>
          <path class="cls-2" d="M196.12,168.77v1.42c.64-.94,1.61-1.61,3.01-1.61,2.27,0,3.93,1.73,3.93,5.18,0,3.25-1.83,5.12-4.1,5.12-1.47,0-2.31-.52-2.83-1.29v5.06h-2.29v-13.87h2.29ZM198.37,176.94c1.37,0,2.29-1.06,2.29-3.17,0-1.99-.82-3.27-2.19-3.27s-2.37,1.1-2.37,3.21c0,1.99.88,3.23,2.27,3.23Z"/>
          <path class="cls-2" d="M213.63,176.2c-.74,1.79-2.25,2.79-4.32,2.79-3.19,0-4.9-2.07-4.9-5.36s1.91-5.14,4.8-5.14c3.15,0,4.46,2.29,4.48,5.84h-6.93c.08,1.71,1.02,2.69,2.59,2.69,1.02,0,1.87-.4,2.23-1.53l2.05.72ZM211.32,172.66c-.08-1.55-.9-2.35-2.17-2.35s-2.21.8-2.37,2.35h4.54Z"/>
          <path class="cls-2" d="M215.51,178.69v-9.92h2.23v1.53c.6-1.08,1.37-1.65,2.75-1.65.32,0,.56.04.86.12v2.35c-.38-.2-.68-.28-1.12-.28-.78,0-1.43.34-1.87.98-.34.5-.52,1.2-.52,2.25v4.62h-2.33Z"/>
          <path class="cls-2" d="M228.3,171.96c0-.56-.12-.94-.38-1.2-.28-.28-.76-.42-1.37-.42-1.22,0-1.75.62-1.87,1.71l-2.23-.2c.16-2.15,1.75-3.35,4.28-3.35,1.35,0,2.31.32,2.97.96.62.58.84,1.39.84,2.95v3.65c0,1.18.08,2.15.28,2.63h-2.25c-.08-.32-.2-.94-.2-1.24-.76.92-1.83,1.41-3.25,1.41-1.81,0-3.09-1.14-3.09-2.91,0-1.28.64-2.11,1.81-2.65.98-.44,2.89-.72,4.46-.82v-.54ZM228.3,174.05c-1.14.06-2.47.26-3.17.6-.62.28-.86.66-.86,1.22,0,.72.48,1.26,1.51,1.26.9,0,1.63-.38,2.07-1.04.32-.46.42-1.02.44-1.57v-.46Z"/>
          <path class="cls-2" d="M239.05,172.2c-.28-1.32-1-1.75-1.93-1.75-1.35,0-2.39,1.02-2.39,3.23s.92,3.35,2.45,3.35c1.06,0,1.69-.56,1.93-1.61l2.09.72c-.58,1.65-1.89,2.85-4.14,2.85-2.89,0-4.72-1.99-4.72-5.26s1.87-5.22,4.84-5.22c2.15,0,3.51,1.22,3.97,2.99l-2.09.72Z"/>
          <path class="cls-2" d="M242.64,166.82v-2.19h2.37v2.19h-2.37ZM245.01,178.69h-2.35v-9.92h2.35v9.92Z"/>
          <path class="cls-2" d="M251.76,178.97c-3.11,0-4.86-1.95-4.86-5.26s1.93-5.22,5-5.22,4.72,1.97,4.72,5.34-1.95,5.14-4.86,5.14ZM251.84,170.44c-1.47,0-2.55,1.14-2.55,3.21,0,2.25,1.04,3.37,2.49,3.37s2.49-1.02,2.49-3.25-.96-3.33-2.43-3.33ZM254.85,164.35l-2.71,2.99h-1.79l1.71-2.99h2.79Z"/>
          <path class="cls-2" d="M264.81,178.69v-5.7c0-.78-.08-1.35-.36-1.75-.26-.38-.7-.56-1.33-.56s-1.3.34-1.69.88c-.5.66-.58,1.39-.58,2.35v4.78h-2.33v-9.92h2.31v1.47c.72-1.02,1.89-1.65,3.29-1.65,1.2,0,1.97.42,2.47,1.18.4.6.56,1.37.56,2.71v6.22h-2.33Z"/>
          <path class="cls-2" d="M279.92,164.63c1.57,0,2.53.16,3.23.54.98.54,1.55,1.61,1.55,2.95,0,1.47-.8,2.63-2.41,3.11,1.93.34,2.91,1.67,2.91,3.51,0,1.47-.68,2.67-1.77,3.31-.86.5-1.93.66-3.95.66h-5.46v-14.07h5.9ZM276.55,170.32h2.89c.82,0,1.47-.1,1.91-.32.52-.26.8-.82.8-1.47s-.18-1.22-.76-1.51c-.42-.22-1-.28-1.87-.28h-2.97v3.59ZM276.55,176.56h2.73c1.1,0,1.97-.1,2.55-.48.46-.3.72-.84.72-1.55s-.26-1.37-.8-1.71c-.52-.32-1.16-.4-2.23-.4h-2.97v4.14Z"/>
          <path class="cls-2" d="M287.13,178.69v-9.92h2.23v1.53c.6-1.08,1.37-1.65,2.75-1.65.32,0,.56.04.86.12v2.35c-.38-.2-.68-.28-1.12-.28-.78,0-1.43.34-1.87.98-.34.5-.52,1.2-.52,2.25v4.62h-2.33Z"/>
          <path class="cls-2" d="M299.92,171.96c0-.56-.12-.94-.38-1.2-.28-.28-.76-.42-1.37-.42-1.22,0-1.75.62-1.87,1.71l-2.23-.2c.16-2.15,1.75-3.35,4.28-3.35,1.35,0,2.31.32,2.97.96.62.58.84,1.39.84,2.95v3.65c0,1.18.08,2.15.28,2.63h-2.25c-.08-.32-.2-.94-.2-1.24-.76.92-1.83,1.41-3.25,1.41-1.81,0-3.09-1.14-3.09-2.91,0-1.28.64-2.11,1.81-2.65.98-.44,2.89-.72,4.46-.82v-.54ZM299.92,174.05c-1.14.06-2.47.26-3.17.6-.62.28-.86.66-.86,1.22,0,.72.48,1.26,1.51,1.26.9,0,1.63-.38,2.07-1.04.32-.46.42-1.02.44-1.57v-.46Z"/>
          <path class="cls-2" d="M305.4,175.54c.52,1.02,1.43,1.61,2.53,1.61,1.02,0,1.57-.44,1.57-1.04,0-.66-.34-.94-1.83-1.42l-1.06-.34c-1.53-.48-2.51-1.37-2.51-2.89s1.4-2.99,3.85-2.99c1.57,0,3.03.6,3.91,1.99l-1.73,1.18c-.5-.88-1.26-1.39-2.21-1.39s-1.47.4-1.47.98.32.88,1.59,1.28l1.06.32c1.75.56,2.75,1.37,2.75,2.97,0,1.83-1.53,3.17-4,3.17-2.03,0-3.41-.98-4.24-2.23l1.81-1.2Z"/>
          <path class="cls-2" d="M313.54,166.82v-2.19h2.37v2.19h-2.37ZM315.92,178.69h-2.35v-9.92h2.35v9.92Z"/>
          <path class="cls-2" d="M320.7,178.69h-2.35v-14.07h2.35v14.07Z"/>
          <path class="cls-2" d="M322.77,173.61v-1.87h5.76v1.87h-5.76Z"/>
          <path class="cls-2" d="M330.68,178.69v-14.07h9.78v2.17h-7.23v3.59h6.67v2.17h-6.67v3.95h7.63v2.19h-10.18Z"/>
          <path class="cls-2" d="M343.63,175.54c.52,1.02,1.43,1.61,2.53,1.61,1.02,0,1.57-.44,1.57-1.04,0-.66-.34-.94-1.83-1.42l-1.06-.34c-1.53-.48-2.51-1.37-2.51-2.89s1.4-2.99,3.85-2.99c1.57,0,3.03.6,3.91,1.99l-1.73,1.18c-.5-.88-1.26-1.39-2.21-1.39s-1.47.4-1.47.98.32.88,1.59,1.28l1.06.32c1.75.56,2.75,1.37,2.75,2.97,0,1.83-1.53,3.17-4,3.17-2.03,0-3.41-.98-4.24-2.23l1.81-1.2Z"/>
          <path class="cls-2" d="M354.09,168.77v1.42c.64-.94,1.61-1.61,3.01-1.61,2.27,0,3.93,1.73,3.93,5.18,0,3.25-1.83,5.12-4.1,5.12-1.47,0-2.31-.52-2.83-1.29v5.06h-2.29v-13.87h2.29ZM356.34,176.94c1.37,0,2.29-1.06,2.29-3.17,0-1.99-.82-3.27-2.19-3.27s-2.37,1.1-2.37,3.21c0,1.99.88,3.23,2.27,3.23Z"/>
          <path class="cls-2" d="M368.55,171.96c0-.56-.12-.94-.38-1.2-.28-.28-.76-.42-1.37-.42-1.22,0-1.75.62-1.87,1.71l-2.23-.2c.16-2.15,1.75-3.35,4.28-3.35,1.35,0,2.31.32,2.97.96.62.58.84,1.39.84,2.95v3.65c0,1.18.08,2.15.28,2.63h-2.25c-.08-.32-.2-.94-.2-1.24-.76.92-1.83,1.41-3.25,1.41-1.81,0-3.09-1.14-3.09-2.91,0-1.28.64-2.11,1.81-2.65.98-.44,2.89-.72,4.46-.82v-.54ZM368.55,174.05c-1.14.06-2.47.26-3.17.6-.62.28-.86.66-.86,1.22,0,.72.48,1.26,1.51,1.26.9,0,1.63-.38,2.07-1.04.32-.46.42-1.02.44-1.57v-.46Z"/>
          <path class="cls-2" d="M379.43,178.69v-5.7c0-.78-.08-1.35-.36-1.75-.26-.38-.7-.56-1.33-.56s-1.3.34-1.69.88c-.5.66-.58,1.39-.58,2.35v4.78h-2.33v-9.92h2.31v1.47c.72-1.02,1.89-1.65,3.29-1.65,1.2,0,1.97.42,2.47,1.18.4.6.56,1.37.56,2.71v6.22h-2.33ZM378.77,167.24c-.34,0-.76-.12-1.14-.32l-.48-.24c-.26-.14-.54-.24-.74-.24-.46,0-.76.24-1.02.86l-1.22-.78c.58-1.24,1.08-1.75,2.01-1.75.32,0,.64.08.98.26l.5.24c.34.16.6.28.82.28.46,0,.68-.2,1.02-.8l1.22.78c-.5,1.1-1.06,1.71-1.95,1.71Z"/>
          <path class="cls-2" d="M389.71,171.96c0-.56-.12-.94-.38-1.2-.28-.28-.76-.42-1.37-.42-1.22,0-1.75.62-1.87,1.71l-2.23-.2c.16-2.15,1.75-3.35,4.28-3.35,1.35,0,2.31.32,2.97.96.62.58.84,1.39.84,2.95v3.65c0,1.18.08,2.15.28,2.63h-2.25c-.08-.32-.2-.94-.2-1.24-.76.92-1.83,1.41-3.25,1.41-1.81,0-3.09-1.14-3.09-2.91,0-1.28.64-2.11,1.81-2.65.98-.44,2.89-.72,4.46-.82v-.54ZM389.71,174.05c-1.14.06-2.47.26-3.17.6-.62.28-.86.66-.86,1.22,0,.72.48,1.26,1.51,1.26.9,0,1.63-.38,2.07-1.04.32-.46.42-1.02.44-1.57v-.46Z"/>
          <path class="cls-2" d="M39.11,200.05c-.58,1.79-2.19,2.79-4.08,2.79-3.07,0-4.66-2.09-4.66-5.28s1.85-5.06,4.56-5.06,4.18,1.87,4.2,5.42h-7.17c0,2.15,1.1,3.59,3.11,3.59,1.2,0,2.25-.44,2.65-1.91l1.4.46ZM34.89,193.79c-1.49,0-2.69.9-2.91,2.89h5.54c-.14-2.09-1.18-2.89-2.63-2.89Z"/>
          <path class="cls-2" d="M47.58,202.6v-5.94c0-.8-.08-1.47-.4-1.95-.3-.46-.82-.72-1.63-.72-.66,0-1.43.34-1.99,1.02-.7.84-.74,1.87-.74,2.87v4.72h-1.57v-9.84h1.57v1.53c.68-1.06,1.93-1.69,3.31-1.69s2.07.52,2.55,1.31c.36.6.46,1.32.46,2.67v6.02h-1.55Z"/>
          <path class="cls-2" d="M65.41,192.56c-.5-1.85-1.67-2.79-3.45-2.79-2.79,0-4.54,2.01-4.54,5.56s1.79,6,4.54,6c1.73,0,3.23-.84,3.71-2.93l1.67.6c-.9,2.65-2.95,3.89-5.54,3.89-3.83,0-6.18-2.83-6.18-7.39s2.63-7.23,6.34-7.23c2.51,0,4.42,1.26,5.1,3.69l-1.65.62Z"/>
          <path class="cls-2" d="M68.99,190.31v-1.77h1.61v1.77h-1.61ZM69.01,202.6v-9.84h1.57v9.84h-1.57Z"/>
          <path class="cls-2" d="M81.49,200.05c-.58,1.79-2.19,2.79-4.08,2.79-3.07,0-4.66-2.09-4.66-5.28s1.85-5.06,4.56-5.06,4.18,1.87,4.2,5.42h-7.17c0,2.15,1.1,3.59,3.11,3.59,1.2,0,2.25-.44,2.65-1.91l1.4.46ZM77.26,193.79c-1.49,0-2.69.9-2.91,2.89h5.54c-.14-2.09-1.18-2.89-2.63-2.89Z"/>
          <path class="cls-2" d="M89.95,202.6v-5.94c0-.8-.08-1.47-.4-1.95-.3-.46-.82-.72-1.63-.72-.66,0-1.43.34-1.99,1.02-.7.84-.74,1.87-.74,2.87v4.72h-1.57v-9.84h1.57v1.53c.68-1.06,1.93-1.69,3.31-1.69s2.07.52,2.55,1.31c.36.6.46,1.32.46,2.67v6.02h-1.55Z"/>
          <path class="cls-2" d="M100.31,195.83c-.34-1.49-1.24-1.97-2.27-1.97-1.77,0-2.89,1.37-2.89,3.83s1.14,3.83,3.01,3.83c1.26,0,1.97-.66,2.23-1.87l1.45.48c-.56,1.57-1.67,2.73-3.85,2.73-2.67,0-4.46-1.93-4.46-5.18s1.73-5.14,4.58-5.14c1.83,0,3.23.9,3.67,2.83l-1.47.48Z"/>
          <path class="cls-2" d="M103.46,190.31v-1.77h1.61v1.77h-1.61ZM103.48,202.6v-9.84h1.57v9.84h-1.57Z"/>
          <path class="cls-2" d="M113.3,195.75c0-1.28-.68-1.91-2.03-1.91-1.51,0-2.19.64-2.31,2.03l-1.57-.18c.16-2.05,1.73-3.19,3.97-3.19,1.24,0,2.15.34,2.73.98.54.56.74,1.4.74,2.89v3.17c0,.42.02,1.04.06,1.31.06.42.34.58.84.58.12,0,.26-.02.38-.04v1.2c-.26.04-.56.06-.82.06-1.31,0-1.81-.5-1.91-1.51-.68,1.06-1.83,1.63-3.27,1.63-1.71,0-3.07-1.12-3.07-2.77,0-1.33.7-2.13,1.83-2.63.88-.38,2.61-.68,4.44-.8v-.82ZM113.3,197.72c-1.02.04-2.71.26-3.57.64-.82.36-1.16.86-1.16,1.55,0,1.06.74,1.57,1.85,1.57,1.32,0,2.43-.84,2.75-2.15.08-.34.12-.8.12-1.1v-.52Z"/>
          <path class="cls-2" d="M118.94,202.56c0,1.59-.28,2.07-1.02,2.85l-.82-.6c.56-.58.74-1.02.74-2.21h-.68v-2.43h1.77v2.39Z"/>
          <path class="cls-2" d="M135.1,192.56c-.5-1.85-1.67-2.79-3.45-2.79-2.79,0-4.54,2.01-4.54,5.56s1.79,6,4.54,6c1.73,0,3.23-.84,3.71-2.93l1.67.6c-.9,2.65-2.95,3.89-5.54,3.89-3.83,0-6.18-2.83-6.18-7.39s2.63-7.23,6.34-7.23c2.51,0,4.42,1.26,5.1,3.69l-1.65.62Z"/>
          <path class="cls-2" d="M140.14,192.76v5.9c0,.74.1,1.41.4,1.89.32.5.94.82,1.73.82.7,0,1.33-.32,1.77-.8.54-.6.86-1.45.86-2.39v-5.42h1.57v9.84h-1.57v-1.45c-.72.96-1.77,1.61-3.15,1.61-1.2,0-2.03-.44-2.57-1.18-.44-.62-.6-1.61-.6-2.57v-6.26h1.55Z"/>
          <path class="cls-2" d="M149.22,202.6v-14.07h1.57v14.07h-1.57Z"/>
          <path class="cls-2" d="M157.65,202.54c-.4.14-.96.2-1.35.2-1.33,0-2.23-.48-2.23-2.47v-6.2h-1.75v-1.32h1.77v-3.19h1.55v3.19h1.97v1.32h-1.97v5.8c0,1.1.32,1.55,1.12,1.55.3,0,.54-.06.9-.2v1.32Z"/>
          <path class="cls-2" d="M160.7,192.76v5.9c0,.74.1,1.41.4,1.89.32.5.94.82,1.73.82.7,0,1.33-.32,1.77-.8.54-.6.86-1.45.86-2.39v-5.42h1.57v9.84h-1.57v-1.45c-.72.96-1.77,1.61-3.15,1.61-1.2,0-2.03-.44-2.57-1.18-.44-.62-.6-1.61-.6-2.57v-6.26h1.55Z"/>
          <path class="cls-2" d="M169.78,202.6v-9.84h1.49v1.59c.6-1.18,1.49-1.71,2.79-1.71.34,0,.56.04.9.12v1.67c-.32-.18-.64-.26-1.08-.26-.9,0-1.67.36-2.15,1.26-.24.44-.38,1.2-.38,2.25v4.92h-1.57Z"/>
          <path class="cls-2" d="M181.48,195.75c0-1.28-.68-1.91-2.03-1.91-1.51,0-2.19.64-2.31,2.03l-1.57-.18c.16-2.05,1.73-3.19,3.97-3.19,1.24,0,2.15.34,2.73.98.54.56.74,1.4.74,2.89v3.17c0,.42.02,1.04.06,1.31.06.42.34.58.84.58.12,0,.26-.02.38-.04v1.2c-.26.04-.56.06-.82.06-1.31,0-1.81-.5-1.91-1.51-.68,1.06-1.83,1.63-3.27,1.63-1.71,0-3.07-1.12-3.07-2.77,0-1.33.7-2.13,1.83-2.63.88-.38,2.61-.68,4.44-.8v-.82ZM181.48,197.72c-1.02.04-2.71.26-3.57.64-.82.36-1.16.86-1.16,1.55,0,1.06.74,1.57,1.85,1.57,1.32,0,2.43-.84,2.75-2.15.08-.34.12-.8.12-1.1v-.52Z"/>
          <path class="cls-2" d="M198.11,200.05c-.58,1.79-2.19,2.79-4.08,2.79-3.07,0-4.66-2.09-4.66-5.28s1.85-5.06,4.56-5.06,4.18,1.87,4.2,5.42h-7.17c0,2.15,1.1,3.59,3.11,3.59,1.2,0,2.25-.44,2.65-1.91l1.4.46ZM193.89,193.79c-1.49,0-2.69.9-2.91,2.89h5.54c-.14-2.09-1.18-2.89-2.63-2.89Z"/>
          <path class="cls-2" d="M204.69,202.6v-14.07h1.69v14.07h-1.69Z"/>
          <path class="cls-2" d="M215.59,202.6v-5.94c0-.8-.08-1.47-.4-1.95-.3-.46-.82-.72-1.63-.72-.66,0-1.43.34-1.99,1.02-.7.84-.74,1.87-.74,2.87v4.72h-1.57v-9.84h1.57v1.53c.68-1.06,1.93-1.69,3.31-1.69s2.07.52,2.55,1.31c.36.6.46,1.32.46,2.67v6.02h-1.55Z"/>
          <path class="cls-2" d="M219.17,197.62c0-3.15,1.77-5.12,4.7-5.12,2.77,0,4.42,1.99,4.42,5.24s-1.75,5.1-4.54,5.1c-2.99,0-4.58-2.03-4.58-5.22ZM223.81,193.83c-1.83,0-3.01,1.43-3.01,3.67,0,2.49,1.16,4,2.93,4s2.93-1.41,2.93-3.77-1.08-3.9-2.85-3.9Z"/>
          <path class="cls-2" d="M232.62,202.6l-3.77-9.84h1.75c1.47,4.07,2.21,6.26,2.87,8.17.6-1.79,1.35-4.14,2.81-8.17h1.69l-3.73,9.84h-1.63Z"/>
          <path class="cls-2" d="M244.63,195.75c0-1.28-.68-1.91-2.03-1.91-1.51,0-2.19.64-2.31,2.03l-1.57-.18c.16-2.05,1.73-3.19,3.97-3.19,1.24,0,2.15.34,2.73.98.54.56.74,1.4.74,2.89v3.17c0,.42.02,1.04.06,1.31.06.42.34.58.84.58.12,0,.26-.02.38-.04v1.2c-.26.04-.56.06-.82.06-1.31,0-1.81-.5-1.91-1.51-.68,1.06-1.83,1.63-3.27,1.63-1.71,0-3.07-1.12-3.07-2.77,0-1.33.7-2.13,1.83-2.63.88-.38,2.61-.68,4.44-.8v-.82ZM244.63,197.72c-1.02.04-2.71.26-3.57.64-.82.36-1.16.86-1.16,1.55,0,1.06.74,1.57,1.85,1.57,1.32,0,2.43-.84,2.75-2.15.08-.34.12-.8.12-1.1v-.52Z"/>
          <path class="cls-2" d="M254.97,195.83c-.34-1.49-1.24-1.97-2.27-1.97-1.77,0-2.89,1.37-2.89,3.83s1.14,3.83,3.01,3.83c1.26,0,1.97-.66,2.23-1.87l1.45.48c-.56,1.57-1.67,2.73-3.85,2.73-2.67,0-4.46-1.93-4.46-5.18s1.73-5.14,4.58-5.14c1.83,0,3.23.9,3.67,2.83l-1.47.48Z"/>
          <path class="cls-2" d="M258.12,190.31v-1.77h1.61v1.77h-1.61ZM258.14,202.6v-9.84h1.57v9.84h-1.57Z"/>
          <path class="cls-2" d="M261.87,197.62c0-3.15,1.77-5.12,4.7-5.12,2.77,0,4.42,1.99,4.42,5.24s-1.75,5.1-4.54,5.1c-2.99,0-4.58-2.03-4.58-5.22ZM266.51,193.83c-1.83,0-3.01,1.43-3.01,3.67,0,2.49,1.16,4,2.93,4s2.93-1.41,2.93-3.77-1.08-3.9-2.85-3.9ZM265.43,191.28l1.51-2.95h1.91l-2.23,2.95h-1.2Z"/>
          <path class="cls-2" d="M279.48,202.6v-5.94c0-.8-.08-1.47-.4-1.95-.3-.46-.82-.72-1.63-.72-.66,0-1.43.34-1.99,1.02-.7.84-.74,1.87-.74,2.87v4.72h-1.57v-9.84h1.57v1.53c.68-1.06,1.93-1.69,3.31-1.69s2.07.52,2.55,1.31c.36.6.46,1.32.46,2.67v6.02h-1.55Z"/>
        </g>
        <g>
          <path class="cls-2" d="M246.68,115.09h-5.34l-1.2,3.31h-1.89l4.59-11.82h2.4l4.57,11.82h-1.93l-1.2-3.31ZM241.83,113.71h4.33l-.53-1.46c-.49-1.32-1.01-2.84-1.38-4.08h-.49c-.39,1.26-.91,2.76-1.4,4.08l-.53,1.46Z"/>
          <path class="cls-2" d="M249.99,115.6l1.56-.32c.32,1.2.99,2.05,2.72,2.05,1.3,0,1.95-.49,1.97-1.38,0-.87-.61-1.24-2.54-1.58-2.38-.43-3.27-1.28-3.27-2.74,0-1.62,1.18-2.68,3.53-2.68s3.27,1.04,3.68,2.7l-1.58.33c-.3-1.28-.95-1.75-2.15-1.75s-1.83.49-1.83,1.3c0,.73.47,1.24,2.29,1.54,2.64.47,3.53,1.34,3.53,2.82,0,1.63-1.08,2.74-3.65,2.74-2.88,0-3.88-1.2-4.26-3.03Z"/>
          <path class="cls-2" d="M259.11,113.77c0-3.01,1.81-4.81,4.61-4.81s4.61,1.79,4.61,4.81-1.69,4.87-4.61,4.87-4.61-1.87-4.61-4.87ZM260.83,113.75c0,2.07.93,3.39,2.88,3.39s2.92-1.32,2.92-3.39-1.01-3.31-2.9-3.31-2.9,1.24-2.9,3.31Z"/>
          <path class="cls-2" d="M274.15,110.48c-1.73,0-2.8,1.12-2.8,3.33,0,2.03,1.01,3.31,2.88,3.31,1.69,0,2.25-1.02,2.58-2.27l1.58.41c-.41,2.11-1.67,3.37-4.14,3.37-2.9,0-4.65-1.75-4.65-4.81s1.83-4.87,4.59-4.87c2.58,0,3.78,1.22,4.16,3.39l-1.6.34c-.32-1.36-.95-2.21-2.6-2.21Z"/>
          <path class="cls-2" d="M280.32,107.42v-1.56h1.97v1.56h-1.97ZM280.44,118.4v-9.2h1.71v9.2h-1.71Z"/>
          <path class="cls-2" d="M290.5,116.21h-.18c-.45,1.52-1.64,2.38-3.27,2.38-1.73,0-2.86-.79-2.86-2.56,0-1.6,1.02-2.76,3.27-2.76h2.96v-.75c0-1.38-.53-2.13-2.03-2.13-1.24,0-1.93.61-2.23,1.83l-1.62-.39c.37-1.77,1.69-2.86,3.9-2.86,2.56,0,3.68,1.24,3.68,3.53v5.89h-1.64v-2.19ZM290.43,114.97v-.51h-2.7c-1.2,0-1.89.47-1.89,1.38,0,.73.45,1.38,1.81,1.38,1.69,0,2.78-.95,2.78-2.25Z"/>
          <path class="cls-2" d="M298.45,110.48c-1.73,0-2.8,1.12-2.8,3.33,0,2.03,1,3.31,2.88,3.31,1.69,0,2.25-1.02,2.58-2.27l1.58.41c-.41,2.11-1.67,3.37-4.14,3.37-2.9,0-4.65-1.75-4.65-4.81s1.83-4.87,4.59-4.87c2.58,0,3.78,1.22,4.16,3.39l-1.6.34c-.32-1.36-.95-2.21-2.6-2.21Z"/>
          <path class="cls-2" d="M304.62,107.42v-1.56h1.97v1.56h-1.97ZM304.73,118.4v-9.2h1.71v9.2h-1.71Z"/>
          <path class="cls-2" d="M308.48,113.77c0-3.01,1.81-4.81,4.61-4.81s4.61,1.79,4.61,4.81-1.69,4.87-4.61,4.87-4.61-1.87-4.61-4.87ZM310.19,113.75c0,2.07.93,3.39,2.88,3.39s2.92-1.32,2.92-3.39-1.01-3.31-2.9-3.31-2.9,1.24-2.9,3.31ZM311.14,107.28l4.55-2.66.67,1.26-4.79,2.25-.43-.85Z"/>
          <path class="cls-2" d="M321.25,118.4h-1.71v-9.2h1.67v2.38h.18c.51-1.63,1.73-2.62,3.33-2.62,2.05,0,2.97,1.34,2.97,3.35v6.09h-1.71v-5.67c0-1.26-.51-2.21-1.99-2.21-1.64,0-2.74,1.04-2.74,2.62v5.26Z"/>
          <path class="cls-2" d="M340.24,115.93h-.12c-.45,1.58-1.6,2.7-3.33,2.7-2.25,0-3.53-1.69-3.53-4.81s1.32-4.87,3.57-4.87c1.81,0,2.84,1.1,3.29,2.68h.12v-5.89h1.71v12.65h-1.71v-2.46ZM340.24,114.18v-.71c0-1.75-1.04-2.96-2.7-2.96s-2.58,1.06-2.58,3.31.83,3.27,2.58,3.27c1.64,0,2.7-1.12,2.7-2.92Z"/>
          <path class="cls-2" d="M343.79,113.87c0-3.07,1.79-4.91,4.57-4.91s4.14,1.69,4.14,4.24c0,.28-.02.69-.06,1.1h-6.94c.14,1.87,1.12,2.9,2.9,2.9,1.66,0,2.23-.83,2.52-1.85l1.5.41c-.45,1.75-1.64,2.86-4.02,2.86-2.86,0-4.61-1.69-4.61-4.75ZM345.53,113.06h5.38c-.08-1.75-.89-2.74-2.58-2.74s-2.6.91-2.8,2.74Z"/>
          <path class="cls-2" d="M357.61,112.47c0-3.76,2.13-6.13,5.67-6.13,3.01,0,4.85,1.67,5.28,4.45l-1.71.33c-.41-2.05-1.54-3.19-3.59-3.19-2.64,0-3.84,1.85-3.84,4.53,0,2.82,1.2,4.59,3.8,4.59,2.21,0,3.27-1.18,3.68-3.29l1.71.32c-.41,2.82-2.27,4.55-5.4,4.55-3.61,0-5.62-2.4-5.62-6.17Z"/>
          <path class="cls-2" d="M370.51,107.42v-1.56h1.97v1.56h-1.97ZM370.63,118.4v-9.2h1.71v9.2h-1.71Z"/>
          <path class="cls-2" d="M374.38,113.87c0-3.07,1.79-4.91,4.57-4.91s4.14,1.69,4.14,4.24c0,.28-.02.69-.06,1.1h-6.94c.14,1.87,1.12,2.9,2.9,2.9,1.66,0,2.23-.83,2.52-1.85l1.5.41c-.45,1.75-1.64,2.86-4.02,2.86-2.86,0-4.61-1.69-4.61-4.75ZM376.11,113.06h5.38c-.08-1.75-.89-2.74-2.58-2.74s-2.6.91-2.8,2.74Z"/>
          <path class="cls-2" d="M386.65,118.4h-1.71v-9.2h1.67v2.38h.18c.51-1.63,1.73-2.62,3.33-2.62,2.05,0,2.98,1.34,2.98,3.35v6.09h-1.71v-5.67c0-1.26-.51-2.21-1.99-2.21-1.64,0-2.74,1.04-2.74,2.62v5.26Z"/>
          <path class="cls-2" d="M396,110.61h-1.4v-1.42h1.4v-2.58h1.71v2.58h2.94v1.42h-2.94v4.85c0,1.04.39,1.58,1.42,1.58.49,0,.91-.1,1.4-.24l.22,1.52c-.63.2-1.12.32-1.97.32-1.93,0-2.78-1.26-2.78-2.98v-5.04Z"/>
          <path class="cls-2" d="M401.75,107.28l4.55-2.66.67,1.26-4.79,2.25-.43-.85ZM402.79,118.4v-9.2h1.71v9.2h-1.71Z"/>
          <path class="cls-2" d="M409.89,109.2h2.8v1.42h-2.8v7.78h-1.71v-7.78h-1.66v-1.42h1.66v-.59c0-1.87,1-3.11,3.05-3.11.69,0,1.16.08,1.54.16l-.08,1.28c-.43-.06-.81-.12-1.2-.12-1.12,0-1.6.63-1.6,1.83v.55Z"/>
          <path class="cls-2" d="M414.22,107.42v-1.56h1.97v1.56h-1.97ZM414.34,118.4v-9.2h1.71v9.2h-1.71Z"/>
          <path class="cls-2" d="M422.64,110.48c-1.73,0-2.8,1.12-2.8,3.33,0,2.03,1,3.31,2.88,3.31,1.69,0,2.25-1.02,2.58-2.27l1.58.41c-.41,2.11-1.67,3.37-4.14,3.37-2.9,0-4.65-1.75-4.65-4.81s1.83-4.87,4.59-4.87c2.58,0,3.78,1.22,4.16,3.39l-1.6.34c-.32-1.36-.95-2.21-2.6-2.21Z"/>
          <path class="cls-2" d="M428.18,113.77c0-3.01,1.81-4.81,4.61-4.81s4.61,1.79,4.61,4.81-1.69,4.87-4.61,4.87-4.61-1.87-4.61-4.87ZM429.89,113.75c0,2.07.93,3.39,2.88,3.39s2.92-1.32,2.92-3.39-1.01-3.31-2.9-3.31-2.9,1.24-2.9,3.31Z"/>
          <path class="cls-2" d="M438.54,115.6l1.56-.32c.32,1.2.99,2.05,2.72,2.05,1.3,0,1.95-.49,1.97-1.38,0-.87-.61-1.24-2.54-1.58-2.38-.43-3.27-1.28-3.27-2.74,0-1.62,1.18-2.68,3.53-2.68s3.27,1.04,3.68,2.7l-1.58.33c-.3-1.28-.95-1.75-2.15-1.75s-1.83.49-1.83,1.3c0,.73.47,1.24,2.29,1.54,2.64.47,3.53,1.34,3.53,2.82,0,1.63-1.08,2.74-3.65,2.74-2.88,0-3.88-1.2-4.26-3.03Z"/>
          <path class="cls-2" d="M239.6,125.96h8.22v1.6h-6.4v3.43h5.75v1.58h-5.75v3.63h6.38v1.6h-8.2v-11.82Z"/>
          <path class="cls-2" d="M249.12,134.98l1.56-.32c.32,1.2.99,2.05,2.72,2.05,1.3,0,1.95-.49,1.97-1.38,0-.87-.61-1.24-2.54-1.58-2.38-.43-3.27-1.28-3.27-2.74,0-1.62,1.18-2.68,3.53-2.68s3.27,1.04,3.68,2.7l-1.58.33c-.3-1.28-.95-1.75-2.15-1.75s-1.83.49-1.83,1.3c0,.73.47,1.24,2.29,1.54,2.64.47,3.53,1.34,3.53,2.82,0,1.63-1.08,2.74-3.65,2.74-2.88,0-3.88-1.2-4.26-3.03Z"/>
          <path class="cls-2" d="M264.02,138.02c-1.79,0-2.92-1.14-3.37-2.72h-.12v5.5h-1.71v-12.22h1.71v2.42h.14c.45-1.58,1.5-2.66,3.27-2.66,2.31,0,3.57,1.73,3.57,4.85s-1.32,4.83-3.49,4.83ZM265.81,133.19c0-2.23-.81-3.29-2.56-3.29-1.66,0-2.72,1.14-2.72,2.96v.71c0,1.73,1.06,2.94,2.72,2.94s2.56-1.1,2.56-3.31Z"/>
          <path class="cls-2" d="M275.09,135.59h-.18c-.45,1.52-1.64,2.38-3.27,2.38-1.73,0-2.86-.79-2.86-2.56,0-1.6,1.02-2.76,3.27-2.76h2.96v-.75c0-1.38-.53-2.13-2.03-2.13-1.24,0-1.93.61-2.23,1.83l-1.62-.39c.37-1.77,1.69-2.86,3.9-2.86,2.56,0,3.68,1.24,3.68,3.53v5.89h-1.64v-2.19ZM275.02,134.35v-.51h-2.7c-1.2,0-1.89.47-1.89,1.38,0,.73.45,1.38,1.81,1.38,1.69,0,2.78-.95,2.78-2.25Z"/>
          <path class="cls-2" d="M280.77,137.78h-1.71v-9.2h1.67v2.38h.18c.51-1.63,1.73-2.62,3.33-2.62,2.05,0,2.97,1.34,2.97,3.35v6.09h-1.71v-5.67c0-1.26-.51-2.21-1.99-2.21-1.64,0-2.74,1.04-2.74,2.62v5.26ZM284.46,125.98c.59,0,.77-.61.73-1.85h.89c.04.32.06.61.06.89,0,1.5-.65,2.21-1.58,2.21-1.44,0-1.71-1.93-2.7-1.93-.61,0-.79.51-.77,1.81h-.87c-.04-.33-.06-.61-.06-.87,0-1.48.63-2.19,1.6-2.19,1.56,0,1.77,1.93,2.7,1.93Z"/>
          <path class="cls-2" d="M288.97,133.15c0-3.01,1.81-4.81,4.61-4.81s4.61,1.79,4.61,4.81-1.69,4.87-4.61,4.87-4.61-1.87-4.61-4.87ZM290.68,133.13c0,2.07.93,3.39,2.88,3.39s2.92-1.32,2.92-3.39-1.01-3.31-2.9-3.31-2.9,1.24-2.9,3.31Z"/>
          <path class="cls-2" d="M301.84,137.78h-1.71v-12.65h1.71v12.65Z"/>
          <path class="cls-2" d="M303.77,133.25c0-3.07,1.79-4.91,4.57-4.91s4.14,1.69,4.14,4.24c0,.28-.02.69-.06,1.1h-6.94c.14,1.87,1.12,2.9,2.9,2.9,1.66,0,2.23-.83,2.52-1.85l1.5.41c-.45,1.75-1.64,2.86-4.02,2.86-2.86,0-4.61-1.69-4.61-4.75ZM305.5,132.44h5.38c-.08-1.75-.89-2.74-2.58-2.74s-2.6.91-2.8,2.74Z"/>
          <path class="cls-2" d="M313.64,134.98l1.56-.32c.32,1.2.99,2.05,2.72,2.05,1.3,0,1.95-.49,1.97-1.38,0-.87-.61-1.24-2.54-1.58-2.38-.43-3.27-1.28-3.27-2.74,0-1.62,1.18-2.68,3.53-2.68s3.27,1.04,3.68,2.7l-1.58.33c-.3-1.28-.95-1.75-2.15-1.75s-1.83.49-1.83,1.3c0,.73.47,1.24,2.29,1.54,2.64.47,3.53,1.34,3.53,2.82,0,1.63-1.08,2.74-3.65,2.74-2.88,0-3.88-1.2-4.26-3.03Z"/>
          <path class="cls-2" d="M326.59,133.25c0-3.07,1.79-4.91,4.57-4.91s4.14,1.69,4.14,4.24c0,.28-.02.69-.06,1.1h-6.94c.14,1.87,1.12,2.9,2.9,2.9,1.66,0,2.23-.83,2.52-1.85l1.5.41c-.45,1.75-1.64,2.86-4.02,2.86-2.86,0-4.61-1.69-4.61-4.75ZM328.32,132.44h5.38c-.08-1.75-.89-2.74-2.58-2.74s-2.6.91-2.8,2.74Z"/>
          <path class="cls-2" d="M338.87,137.78h-1.71v-9.2h1.67v2.38h.18c.51-1.63,1.73-2.62,3.33-2.62,2.05,0,2.98,1.34,2.98,3.35v6.09h-1.71v-5.67c0-1.26-.51-2.21-1.99-2.21-1.64,0-2.74,1.04-2.74,2.62v5.26Z"/>
          <path class="cls-2" d="M351.58,125.96h4.81c2.7,0,3.94,1.03,3.94,3.02,0,1.52-.87,2.4-2.33,2.76v.18c1.99.22,2.9,1.03,2.9,2.68,0,1.87-1.18,3.19-4.1,3.19h-5.22v-11.82ZM353.39,127.4v3.82h2.94c1.34,0,2.25-.53,2.25-1.97,0-1.24-.61-1.85-2.13-1.85h-3.05ZM353.39,132.56v3.8h3.35c1.64,0,2.36-.77,2.36-1.91,0-1.2-.63-1.89-2.46-1.89h-3.25Z"/>
          <path class="cls-2" d="M362.65,137.78v-9.2h1.65v2.6l.14.02c.47-2.01,1.42-2.72,2.84-2.72h.35v1.89h-.47c-1.99,0-2.8.79-2.8,2.86v4.55h-1.71Z"/>
          <path class="cls-2" d="M374.93,135.59h-.18c-.45,1.52-1.64,2.38-3.27,2.38-1.73,0-2.86-.79-2.86-2.56,0-1.6,1.02-2.76,3.27-2.76h2.96v-.75c0-1.38-.53-2.13-2.03-2.13-1.24,0-1.93.61-2.23,1.83l-1.62-.39c.37-1.77,1.69-2.86,3.9-2.86,2.56,0,3.68,1.24,3.68,3.53v5.89h-1.64v-2.19ZM374.85,134.35v-.51h-2.7c-1.2,0-1.89.47-1.89,1.38,0,.73.45,1.38,1.81,1.38,1.69,0,2.78-.95,2.78-2.25Z"/>
          <path class="cls-2" d="M378.2,134.98l1.56-.32c.32,1.2.99,2.05,2.72,2.05,1.3,0,1.95-.49,1.97-1.38,0-.87-.61-1.24-2.54-1.58-2.38-.43-3.27-1.28-3.27-2.74,0-1.62,1.18-2.68,3.53-2.68s3.27,1.04,3.68,2.7l-1.58.33c-.3-1.28-.95-1.75-2.15-1.75s-1.83.49-1.83,1.3c0,.73.47,1.24,2.29,1.54,2.64.47,3.53,1.34,3.53,2.82,0,1.63-1.08,2.74-3.65,2.74-2.88,0-3.88-1.2-4.26-3.03Z"/>
          <path class="cls-2" d="M387.96,126.8v-1.56h1.97v1.56h-1.97ZM388.07,137.78v-9.2h1.71v9.2h-1.71Z"/>
          <path class="cls-2" d="M394.2,137.78h-1.71v-12.65h1.71v12.65Z"/>
        </g>
      </g>
    </g>
  </g>
</svg>