<?xml version="1.0" encoding="UTF-8"?>
<svg id="Camada_2" data-name="Camada 2" xmlns="http://www.w3.org/2000/svg" viewBox="0 0 748.76 115.02">
  <defs>
    <style>
      .cls-1 {
        fill: none;
      }

      .cls-2 {
        fill: #fff;
      }
    </style>
  </defs>
  <g id="conteúdo">
    <g>
      <rect class="cls-1" width="748.76" height="115.02"/>
      <g>
        <g>
          <path class="cls-2" d="M28.96,28h6.31c3.27,0,5.08,1.81,5.08,5.08v.72h-11.4v-5.8ZM28.96,80.25h11.4v5.81h-11.4v-5.81ZM40.35,75.18v-41.37h1.09c3.27,0,5.08,1.81,5.08,5.08v41.37h-1.09c-3.27,0-5.08-1.81-5.08-5.08ZM46.52,28h11.4v5.8h-11.4v-5.8ZM46.52,80.25h11.4v5.81h-6.31c-3.27,0-5.08-1.81-5.08-5.08v-.73Z"/>
          <path class="cls-2" d="M66.62,28h6.17v46.45h-1.09c-3.27,0-5.08-1.81-5.08-5.08V28ZM72.79,74.45h.72c3.27,0,5.08,1.81,5.08,5.08v.72h-.72c-3.27,0-5.08-1.81-5.08-5.08v-.73ZM78.59,80.25h12.34v.73c0,3.27-1.81,5.08-5.08,5.08h-2.18c-3.27,0-5.08-1.81-5.08-5.08v-.73ZM96.74,75.18c0,3.27-1.81,5.08-5.08,5.08h-.72v-.72c0-3.27,1.81-5.08,5.08-5.08h.72v.73ZM96.74,28h6.17v41.37c0,3.27-1.81,5.08-5.08,5.08h-1.09V28Z"/>
        </g>
        <g>
          <path class="cls-2" d="M124.37,57.37c0-12.71,7.42-20.29,18.91-20.29s17.11,7.01,17.11,17.52c0,1.14-.08,2.85-.24,4.56h-28.68c.57,7.74,4.64,11.98,11.98,11.98,6.84,0,9.21-3.42,10.43-7.66l6.19,1.71c-1.87,7.25-6.76,11.82-16.62,11.82-11.82,0-19.07-7.01-19.07-19.64ZM131.54,54.03h22.25c-.33-7.25-3.67-11.33-10.67-11.33s-10.76,3.75-11.57,11.33Z"/>
          <path class="cls-2" d="M175.14,76.11h-7.09v-38.05h6.93v9.86h.73c2.12-6.76,7.17-10.84,13.77-10.84,8.47,0,12.3,5.54,12.3,13.85v25.18h-7.09v-23.47c0-5.22-2.12-9.13-8.23-9.13-6.76,0-11.33,4.32-11.33,10.84v21.76Z"/>
          <path class="cls-2" d="M227.86,43.35c-7.17,0-11.57,4.64-11.57,13.77,0,8.39,4.16,13.69,11.9,13.69,7.01,0,9.29-4.24,10.68-9.37l6.52,1.71c-1.71,8.72-6.93,13.94-17.11,13.94-11.98,0-19.23-7.25-19.23-19.88s7.58-20.13,18.99-20.13c10.68,0,15.65,5.05,17.19,14.02l-6.6,1.39c-1.3-5.62-3.91-9.13-10.76-9.13Z"/>
          <path class="cls-2" d="M279.6,66.17h-.65c-2.12,6.76-7.17,10.92-13.77,10.92-8.56,0-12.39-5.62-12.39-13.94v-25.1h7.09v23.39c0,5.3,2.2,9.13,8.31,9.13,6.76,0,11.25-4.24,11.25-10.76v-21.76h7.09v38.05h-6.93v-9.94Z"/>
          <path class="cls-2" d="M294.1,57.37c0-12.71,7.42-20.29,18.91-20.29s17.11,7.01,17.11,17.52c0,1.14-.08,2.85-.24,4.56h-28.68c.57,7.74,4.65,11.98,11.98,11.98,6.84,0,9.21-3.42,10.43-7.66l6.19,1.71c-1.87,7.25-6.76,11.82-16.62,11.82-11.82,0-19.07-7.01-19.07-19.64ZM301.28,54.03h22.25c-.33-7.25-3.67-11.33-10.67-11.33s-10.76,3.75-11.57,11.33Z"/>
          <path class="cls-2" d="M344.87,76.11h-7.09v-38.05h6.93v9.86h.73c2.12-6.76,7.17-10.84,13.77-10.84,8.47,0,12.3,5.54,12.3,13.85v25.18h-7.09v-23.47c0-5.22-2.12-9.13-8.23-9.13-6.76,0-11.33,4.32-11.33,10.84v21.76Z"/>
          <path class="cls-2" d="M383.49,43.92h-5.79v-5.87h5.79v-10.67h7.09v10.67h12.14v5.87h-12.14v20.05c0,4.32,1.63,6.52,5.87,6.52,2.04,0,3.75-.41,5.79-.98l.9,6.27c-2.61.82-4.65,1.3-8.15,1.3-7.99,0-11.49-5.22-11.49-12.3v-20.86Z"/>
          <path class="cls-2" d="M409.81,76.11v-38.05h6.84v10.76l.57.08c1.96-8.31,5.87-11.24,11.73-11.24h1.47v7.82h-1.96c-8.23,0-11.57,3.26-11.57,11.82v18.82h-7.09Z"/>
          <path class="cls-2" d="M434.42,56.96c0-12.47,7.5-19.88,19.07-19.88s19.07,7.42,19.07,19.88-7.01,20.13-19.07,20.13-19.07-7.74-19.07-20.13ZM441.51,56.88c0,8.56,3.83,14.02,11.9,14.02s12.06-5.46,12.06-14.02-4.16-13.69-11.98-13.69-11.98,5.13-11.98,13.69Z"/>
          <path class="cls-2" d="M519.73,67.06h-.73c-1.87,6.27-6.76,9.86-13.53,9.86-7.17,0-11.82-3.26-11.82-10.59,0-6.6,4.24-11.41,13.53-11.41h12.22v-3.1c0-5.7-2.2-8.8-8.39-8.8-5.13,0-7.99,2.53-9.21,7.58l-6.68-1.63c1.55-7.33,7.01-11.82,16.13-11.82,10.59,0,15.24,5.13,15.24,14.59v24.36h-6.76v-9.04ZM519.41,61.93v-2.12h-11.16c-4.97,0-7.82,1.96-7.82,5.7,0,3.01,1.87,5.7,7.5,5.7,7.01,0,11.49-3.91,11.49-9.29Z"/>
          <path class="cls-2" d="M552.57,43.35c-7.17,0-11.57,4.64-11.57,13.77,0,8.39,4.16,13.69,11.9,13.69,7.01,0,9.29-4.24,10.68-9.37l6.52,1.71c-1.71,8.72-6.93,13.94-17.11,13.94-11.98,0-19.23-7.25-19.23-19.88s7.58-20.13,18.99-20.13c10.68,0,15.65,5.05,17.19,14.02l-6.6,1.39c-1.3-5.62-3.91-9.13-10.76-9.13Z"/>
          <path class="cls-2" d="M575.47,57.37c0-12.71,7.42-20.29,18.91-20.29s17.11,7.01,17.11,17.52c0,1.14-.08,2.85-.24,4.56h-28.68c.57,7.74,4.65,11.98,11.98,11.98,6.84,0,9.21-3.42,10.43-7.66l6.19,1.71c-1.87,7.25-6.76,11.82-16.62,11.82-11.82,0-19.07-7.01-19.07-19.64ZM582.64,54.03h22.25c-.33-7.25-3.67-11.33-10.67-11.33s-10.76,3.75-11.57,11.33Z"/>
          <path class="cls-2" d="M626.23,48.08h.57c1.87-6.52,6.19-11,13.53-11,9.53,0,14.75,7.17,14.75,20.05s-5.46,19.96-14.42,19.96c-7.41,0-12.06-4.73-13.93-11.25h-.49v10.27h-7.09V23.79h7.09v24.28ZM648.07,57.12c0-9.21-3.34-13.61-10.59-13.61-6.84,0-11.25,4.73-11.25,12.22v2.93c0,7.17,4.4,12.14,11.25,12.14s10.59-4.56,10.59-13.69Z"/>
          <path class="cls-2" d="M662.74,76.11v-38.05h6.84v10.76l.57.08c1.96-8.31,5.87-11.24,11.73-11.24h1.47v7.82h-1.96c-8.23,0-11.57,3.26-11.57,11.82v18.82h-7.09Z"/>
          <path class="cls-2" d="M713.5,67.06h-.73c-1.87,6.27-6.76,9.86-13.53,9.86-7.17,0-11.82-3.26-11.82-10.59,0-6.6,4.24-11.41,13.53-11.41h12.22v-3.1c0-5.7-2.2-8.8-8.39-8.8-5.13,0-7.99,2.53-9.21,7.58l-6.68-1.63c1.55-7.33,7.01-11.82,16.13-11.82,10.59,0,15.24,5.13,15.24,14.59v24.36h-6.76v-9.04ZM713.18,61.93v-2.12h-11.16c-4.97,0-7.82,1.96-7.82,5.7,0,3.01,1.87,5.7,7.5,5.7,7.01,0,11.49-3.91,11.49-9.29Z"/>
        </g>
      </g>
    </g>
  </g>
</svg>