<?xml version="1.0" encoding="UTF-8"?>
<svg id="Camada_2" data-name="Camada 2" xmlns="http://www.w3.org/2000/svg" viewBox="0 0 700.91 136.34">
  <defs>
    <style>
      .cls-1 {
        fill: #fceb4d;
      }
    </style>
  </defs>
  <g id="conteúdo">
    <g>
      <g>
        <g>
          <path class="cls-1" d="M77.64,60.09h10.28v5.16h-16.04v-24h5.76v18.84Z"/>
          <path class="cls-1" d="M101.83,60.73h-.48c-.96,3-2.96,4.92-6.2,4.92s-5.56-1.64-5.56-5.36c0-3.4,2-5.76,7-5.76h4.96v-1.32c0-1.96-.84-3.08-2.92-3.08-1.8,0-2.84.88-3.2,2.72l-5.12-1.16c.64-3.44,3.28-5.88,8.52-5.88,5.76,0,8.12,2.64,8.12,7.4v12.04h-5.12v-4.52ZM101.55,57.97v-.76h-3.92c-1.76,0-2.88.8-2.88,2.12,0,1.2.68,2.16,2.76,2.16,2.48,0,4.04-1.48,4.04-3.52Z"/>
          <path class="cls-1" d="M117.15,56.17c0-6.56,3.56-10.4,9.72-10.4,5.84,0,8.6,3.44,8.6,8.68,0,.8-.04,1.56-.12,2.56h-12.84c.32,3.04,1.72,4.4,4.32,4.4s3.36-1.2,3.84-2.64l4.56,1.24c-.84,3.28-3.04,5.76-8.44,5.76-5.72,0-9.64-3.16-9.64-9.6ZM122.55,54.25h7.92c-.08-2.96-1.32-4.4-3.76-4.4s-3.88,1.28-4.16,4.4Z"/>
          <path class="cls-1" d="M150.54,60.29h-.32c-.96,3.32-3.04,5.52-6.2,5.52-4.08,0-6.48-3.48-6.48-9.88s2.4-10.16,6.56-10.16c3.04,0,5.08,2,6.08,5.32h.36v-11.52h5.44v25.68h-5.44v-4.96ZM150.54,56.69v-1.48c0-2.76-1.48-4.52-3.88-4.52-2.6,0-3.8,1.68-3.8,5.24s1.16,5.08,3.84,5.08c2.28,0,3.84-1.68,3.84-4.32Z"/>
          <path class="cls-1" d="M171.98,60.21h-.4c-1.08,3.68-3.4,5.6-6.4,5.6-3.6,0-5.44-2.56-5.44-6.68v-12.84h5.44v11.32c0,1.96.88,3.28,2.88,3.28,2.32,0,3.76-1.64,3.76-4.04v-10.56h5.48v18.96h-5.32v-5.04Z"/>
          <path class="cls-1" d="M189.85,50.53c-2.52,0-4.08,1.6-4.08,5.2,0,3.36,1.36,5.32,4.16,5.32,2.44,0,3.36-1.64,3.76-3.6l5,1.2c-.64,4.4-3.32,7.16-8.72,7.16-6,0-9.76-3.32-9.76-9.8s3.68-10.24,9.72-10.24c5.64,0,8.04,2.68,8.72,7.28l-5.04.96c-.48-2.04-1.36-3.48-3.76-3.48Z"/>
          <path class="cls-1" d="M212.93,60.73h-.48c-.96,3-2.96,4.92-6.2,4.92s-5.56-1.64-5.56-5.36c0-3.4,2-5.76,7-5.76h4.96v-1.32c0-1.96-.84-3.08-2.92-3.08-1.8,0-2.84.88-3.2,2.72l-5.12-1.16c.64-3.44,3.28-5.88,8.52-5.88,5.76,0,8.12,2.64,8.12,7.4v12.04h-5.12v-4.52ZM212.65,57.97v-.76h-3.92c-1.76,0-2.88.8-2.88,2.12,0,1.2.68,2.16,2.76,2.16,2.48,0,4.04-1.48,4.04-3.52Z"/>
          <path class="cls-1" d="M230.56,50.53c-2.52,0-4.08,1.6-4.08,5.2,0,3.36,1.36,5.32,4.16,5.32,2.44,0,3.36-1.64,3.76-3.6l5,1.2c-.64,4.4-3.32,7.16-8.72,7.16-6,0-9.76-3.32-9.76-9.8s3.68-10.24,9.72-10.24c5.64,0,8.04,2.68,8.72,7.28l-5.04.96c-.48-2.04-1.36-3.48-3.76-3.48Z"/>
          <path class="cls-1" d="M242.48,43.61v-3.92h5.68v3.92h-5.68ZM242.6,65.25v-18.96h5.44v18.96h-5.44Z"/>
          <path class="cls-1" d="M251.12,55.77c0-6.32,3.76-10,9.8-10s9.72,3.68,9.72,10-3.68,10.04-9.72,10.04-9.8-3.8-9.8-10.04ZM256.55,55.73c0,3.44,1.24,5.44,4.32,5.44s4.32-2,4.32-5.44-1.32-5.4-4.32-5.4-4.32,1.96-4.32,5.4ZM256.83,42.09l9.44-5.44,1.96,3.76-10.04,4.32-1.36-2.64Z"/>
          <path class="cls-1" d="M278.99,65.25h-5.44v-18.96h5.32v5.08h.36c1.12-3.68,3.44-5.6,6.4-5.6,3.64,0,5.48,2.52,5.48,6.64v12.84h-5.44v-11.32c0-1.92-.88-3.24-2.88-3.24-2.32,0-3.8,1.64-3.8,4v10.56Z"/>
          <path class="cls-1" d="M310.82,50.53c-2.52,0-4.08,1.6-4.08,5.2,0,3.36,1.36,5.32,4.16,5.32,2.44,0,3.36-1.64,3.76-3.6l5,1.2c-.64,4.4-3.32,7.16-8.72,7.16-6,0-9.76-3.32-9.76-9.8s3.68-10.24,9.72-10.24c5.64,0,8.04,2.68,8.72,7.28l-5.04.96c-.48-2.04-1.36-3.48-3.76-3.48Z"/>
          <path class="cls-1" d="M321.78,55.77c0-6.32,3.76-10,9.8-10s9.72,3.68,9.72,10-3.68,10.04-9.72,10.04-9.8-3.8-9.8-10.04ZM327.22,55.73c0,3.44,1.24,5.44,4.32,5.44s4.32-2,4.32-5.44-1.32-5.4-4.32-5.4-4.32,1.96-4.32,5.4Z"/>
          <path class="cls-1" d="M349.65,65.25h-5.44v-18.96h5.32v5.08h.4c1.08-3.68,3.36-5.6,6.36-5.6,3.36,0,5,2.12,5.24,5.68h.44c1.04-3.72,3.2-5.68,6.32-5.68,3.72,0,5.6,2.52,5.6,6.64v12.84h-5.48v-11.32c0-1.92-.88-3.24-2.88-3.24-2.32,0-3.76,1.64-3.76,4v10.56h-5.44v-11.32c0-1.92-.92-3.24-2.88-3.24-2.32,0-3.8,1.64-3.8,4v10.56Z"/>
          <path class="cls-1" d="M376.69,55.77c0-6.32,3.76-10,9.8-10s9.72,3.68,9.72,10-3.68,10.04-9.72,10.04-9.8-3.8-9.8-10.04ZM382.12,55.73c0,3.44,1.24,5.44,4.32,5.44s4.32-2,4.32-5.44-1.32-5.4-4.32-5.4-4.32,1.96-4.32,5.4Z"/>
          <path class="cls-1" d="M411.88,65.25h-5.44v-18.96h5.32v5.08h.4c1.08-3.68,3.36-5.6,6.36-5.6,3.36,0,5,2.12,5.24,5.68h.44c1.04-3.72,3.2-5.68,6.32-5.68,3.72,0,5.6,2.52,5.6,6.64v12.84h-5.48v-11.32c0-1.92-.88-3.24-2.88-3.24-2.32,0-3.76,1.64-3.76,4v10.56h-5.44v-11.32c0-1.92-.92-3.24-2.88-3.24-2.32,0-3.8,1.64-3.8,4v10.56Z"/>
          <path class="cls-1" d="M438.91,55.77c0-6.32,3.76-10,9.8-10s9.72,3.68,9.72,10-3.68,10.04-9.72,10.04-9.8-3.8-9.8-10.04ZM444.35,55.73c0,3.44,1.24,5.44,4.32,5.44s4.32-2,4.32-5.44-1.32-5.4-4.32-5.4-4.32,1.96-4.32,5.4Z"/>
          <path class="cls-1" d="M462.34,50.61h-2.32v-4.32h2.32v-4.88h5.44v4.88h5v4.32h-5v7.8c0,1.52.56,2.28,2.2,2.28.84,0,1.76-.24,2.48-.48l.6,4.88c-1.44.44-2.4.72-4.48.72-4.4,0-6.24-2.92-6.24-6.52v-8.68Z"/>
          <path class="cls-1" d="M474.86,55.77c0-6.32,3.76-10,9.8-10s9.72,3.68,9.72,10-3.68,10.04-9.72,10.04-9.8-3.8-9.8-10.04ZM480.3,55.73c0,3.44,1.24,5.44,4.32,5.44s4.32-2,4.32-5.44-1.32-5.4-4.32-5.4-4.32,1.96-4.32,5.4Z"/>
          <path class="cls-1" d="M497.3,65.25v-18.96h5.16v6.16h.44c1.2-5.28,2.8-6.36,5.28-6.36h.56v6.24h-1.12c-3.8,0-4.88,1.12-4.88,4.48v8.44h-5.44Z"/>
          <path class="cls-1" d="M83.8,96.42h-.32c-.96,3.32-3.04,5.52-6.2,5.52-4.08,0-6.48-3.48-6.48-9.88s2.4-10.16,6.56-10.16c3.04,0,5.08,2,6.08,5.32h.36v-11.52h5.44v25.68h-5.44v-4.96ZM83.8,92.82v-1.48c0-2.76-1.48-4.52-3.88-4.52-2.6,0-3.8,1.68-3.8,5.24s1.16,5.08,3.84,5.08c2.28,0,3.84-1.68,3.84-4.32Z"/>
          <path class="cls-1" d="M92.15,92.3c0-6.56,3.56-10.4,9.72-10.4,5.84,0,8.6,3.44,8.6,8.68,0,.8-.04,1.56-.12,2.56h-12.84c.32,3.04,1.72,4.4,4.32,4.4s3.36-1.2,3.84-2.64l4.56,1.24c-.84,3.28-3.04,5.76-8.44,5.76-5.72,0-9.64-3.16-9.64-9.6ZM97.55,90.38h7.92c-.08-2.96-1.32-4.4-3.76-4.4s-3.88,1.28-4.16,4.4Z"/>
          <path class="cls-1" d="M118.99,101.37h-5.44v-25.68h5.44v25.68Z"/>
          <path class="cls-1" d="M142.3,96.42h-.32c-.96,3.32-3.04,5.52-6.2,5.52-4.08,0-6.48-3.48-6.48-9.88s2.4-10.16,6.56-10.16c3.04,0,5.08,2,6.08,5.32h.36v-11.52h5.44v25.68h-5.44v-4.96ZM142.3,92.82v-1.48c0-2.76-1.48-4.52-3.88-4.52-2.6,0-3.8,1.68-3.8,5.24s1.16,5.08,3.84,5.08c2.28,0,3.84-1.68,3.84-4.32Z"/>
          <path class="cls-1" d="M150.66,92.3c0-6.56,3.56-10.4,9.72-10.4,5.84,0,8.6,3.44,8.6,8.68,0,.8-.04,1.56-.12,2.56h-12.84c.32,3.04,1.72,4.4,4.32,4.4s3.36-1.2,3.84-2.64l4.56,1.24c-.84,3.28-3.04,5.76-8.44,5.76-5.72,0-9.64-3.16-9.64-9.6ZM156.06,90.38h7.92c-.08-2.96-1.32-4.4-3.76-4.4s-3.88,1.28-4.16,4.4Z"/>
          <path class="cls-1" d="M170.85,95.93l4.88-1c.48,2.08,1.76,3.16,4.12,3.16,1.84,0,2.76-.6,2.8-1.84,0-1.16-.76-1.8-4.24-2.48-5.2-1.12-6.96-2.84-6.96-6.08,0-3.64,2.6-5.8,7.96-5.8s7.32,2.16,8,5.48l-4.84,1c-.44-1.96-1.32-2.72-3.28-2.72-1.8,0-2.68.6-2.68,1.72,0,1.04.52,1.8,3.92,2.48,5.92,1.24,7.36,3.2,7.36,6.16,0,3.68-2.44,5.92-8.16,5.92-6.4,0-8.36-2.56-8.88-6Z"/>
          <path class="cls-1" d="M201.93,96.85h-.48c-.96,3-2.96,4.92-6.2,4.92s-5.56-1.64-5.56-5.36c0-3.4,2-5.76,7-5.76h4.96v-1.32c0-1.96-.84-3.08-2.92-3.08-1.8,0-2.84.88-3.2,2.72l-5.12-1.16c.64-3.44,3.28-5.88,8.52-5.88,5.76,0,8.12,2.64,8.12,7.4v12.04h-5.12v-4.52ZM201.65,94.1v-.76h-3.92c-1.76,0-2.88.8-2.88,2.12,0,1.2.68,2.16,2.76,2.16,2.48,0,4.04-1.48,4.04-3.52Z"/>
          <path class="cls-1" d="M210.85,101.37v-18.96h5.16v6.16h.44c1.2-5.28,2.8-6.36,5.28-6.36h.56v6.24h-1.12c-3.8,0-4.88,1.12-4.88,4.48v8.44h-5.44Z"/>
          <path class="cls-1" d="M224.88,101.37v-18.96h5.16v6.16h.44c1.2-5.28,2.8-6.36,5.28-6.36h.56v6.24h-1.12c-3.8,0-4.88,1.12-4.88,4.48v8.44h-5.44Z"/>
          <path class="cls-1" d="M238,91.9c0-6.32,3.76-10,9.8-10s9.72,3.68,9.72,10-3.68,10.04-9.72,10.04-9.8-3.8-9.8-10.04ZM243.44,91.86c0,3.44,1.24,5.44,4.32,5.44s4.32-2,4.32-5.44-1.32-5.4-4.32-5.4-4.32,1.96-4.32,5.4Z"/>
          <path class="cls-1" d="M265.95,101.37h-5.44v-25.68h5.44v25.68Z"/>
          <path class="cls-1" d="M275.39,101.37h-5.44v-25.68h5.44v25.68Z"/>
          <path class="cls-1" d="M278.39,91.9c0-6.32,3.76-10,9.8-10s9.72,3.68,9.72,10-3.68,10.04-9.72,10.04-9.8-3.8-9.8-10.04ZM283.83,91.86c0,3.44,1.24,5.44,4.32,5.44s4.32-2,4.32-5.44-1.32-5.4-4.32-5.4-4.32,1.96-4.32,5.4Z"/>
          <path class="cls-1" d="M307.02,95.93l4.88-1c.48,2.08,1.76,3.16,4.12,3.16,1.84,0,2.76-.6,2.8-1.84,0-1.16-.76-1.8-4.24-2.48-5.2-1.12-6.96-2.84-6.96-6.08,0-3.64,2.6-5.8,7.96-5.8s7.32,2.16,8,5.48l-4.84,1c-.44-1.96-1.32-2.72-3.28-2.72-1.8,0-2.68.6-2.68,1.72,0,1.04.52,1.8,3.92,2.48,5.92,1.24,7.36,3.2,7.36,6.16,0,3.68-2.44,5.92-8.16,5.92-6.4,0-8.36-2.56-8.88-6Z"/>
          <path class="cls-1" d="M325.98,91.9c0-6.32,3.76-10,9.8-10s9.72,3.68,9.72,10-3.68,10.04-9.72,10.04-9.8-3.8-9.8-10.04ZM331.42,91.86c0,3.44,1.24,5.44,4.32,5.44s4.32-2,4.32-5.44-1.32-5.4-4.32-5.4-4.32,1.96-4.32,5.4Z"/>
          <path class="cls-1" d="M357.13,86.66c-2.52,0-4.08,1.6-4.08,5.2,0,3.36,1.36,5.32,4.16,5.32,2.44,0,3.36-1.64,3.76-3.6l5,1.2c-.64,4.4-3.32,7.16-8.72,7.16-6,0-9.76-3.32-9.76-9.8s3.68-10.24,9.72-10.24c5.64,0,8.04,2.68,8.72,7.28l-5.04.96c-.48-2.04-1.36-3.48-3.76-3.48Z"/>
          <path class="cls-1" d="M369.05,79.74v-3.92h5.68v3.92h-5.68ZM369.17,101.37v-18.96h5.44v18.96h-5.44Z"/>
          <path class="cls-1" d="M389.8,96.85h-.48c-.96,3-2.96,4.92-6.2,4.92s-5.56-1.64-5.56-5.36c0-3.4,2-5.76,7-5.76h4.96v-1.32c0-1.96-.84-3.08-2.92-3.08-1.8,0-2.84.88-3.2,2.72l-5.12-1.16c.64-3.44,3.28-5.88,8.52-5.88,5.76,0,8.12,2.64,8.12,7.4v12.04h-5.12v-4.52ZM389.52,94.1v-.76h-3.92c-1.76,0-2.88.8-2.88,2.12,0,1.2.68,2.16,2.76,2.16,2.48,0,4.04-1.48,4.04-3.52Z"/>
          <path class="cls-1" d="M404.24,101.37h-5.44v-25.68h5.44v25.68Z"/>
          <path class="cls-1" d="M413.8,107.81l.8-4.6c.8.16,1.64.28,2.44.28,1.92,0,2.92-.36,3.8-2.36l-7.12-18.72h5.96l1.88,6.96c.56,2.12,1.24,4.56,1.84,6.88h.68c.6-2.36,1.24-4.72,1.72-6.76l1.76-7.08h5.84l-7.48,19.04c-1.84,4.64-4.24,6.64-9,6.64-1.32,0-2.12-.12-3.12-.28Z"/>
          <path class="cls-1" d="M443.43,86.74h-2.32v-4.32h2.32v-4.88h5.44v4.88h5v4.32h-5v7.8c0,1.52.56,2.28,2.2,2.28.84,0,1.76-.24,2.48-.48l.6,4.88c-1.44.44-2.4.72-4.48.72-4.4,0-6.24-2.92-6.24-6.52v-8.68Z"/>
          <path class="cls-1" d="M455.94,92.3c0-6.56,3.56-10.4,9.72-10.4,5.84,0,8.6,3.44,8.6,8.68,0,.8-.04,1.56-.12,2.56h-12.84c.32,3.04,1.72,4.4,4.32,4.4s3.36-1.2,3.84-2.64l4.56,1.24c-.84,3.28-3.04,5.76-8.44,5.76-5.72,0-9.64-3.16-9.64-9.6ZM461.34,90.38h7.92c-.08-2.96-1.32-4.4-3.76-4.4s-3.88,1.28-4.16,4.4Z"/>
          <path class="cls-1" d="M485.98,86.66c-2.52,0-4.08,1.6-4.08,5.2,0,3.36,1.36,5.32,4.16,5.32,2.44,0,3.36-1.64,3.76-3.6l5,1.2c-.64,4.4-3.32,7.16-8.72,7.16-6,0-9.76-3.32-9.76-9.8s3.68-10.24,9.72-10.24c5.64,0,8.04,2.68,8.72,7.28l-5.04.96c-.48-2.04-1.36-3.48-3.76-3.48Z"/>
          <path class="cls-1" d="M503.29,101.37h-5.44v-18.96h5.32v5.08h.36c1.12-3.68,3.44-5.6,6.4-5.6,3.64,0,5.48,2.52,5.48,6.64v12.84h-5.44v-11.32c0-1.92-.88-3.24-2.88-3.24-2.32,0-3.8,1.64-3.8,4v10.56Z"/>
          <path class="cls-1" d="M518.17,91.9c0-6.32,3.76-10,9.8-10s9.72,3.68,9.72,10-3.68,10.04-9.72,10.04-9.8-3.8-9.8-10.04ZM523.61,91.86c0,3.44,1.24,5.44,4.32,5.44s4.32-2,4.32-5.44-1.32-5.4-4.32-5.4-4.32,1.96-4.32,5.4Z"/>
          <path class="cls-1" d="M546.12,101.37h-5.44v-25.68h5.44v25.68Z"/>
          <path class="cls-1" d="M549.12,91.9c0-6.32,3.76-10,9.8-10s9.72,3.68,9.72,10-3.68,10.04-9.72,10.04-9.8-3.8-9.8-10.04ZM554.56,91.86c0,3.44,1.24,5.44,4.32,5.44s4.32-2,4.32-5.44-1.32-5.4-4.32-5.4-4.32,1.96-4.32,5.4ZM554.84,78.22l9.44-5.44,1.96,3.76-10.04,4.32-1.36-2.64Z"/>
          <path class="cls-1" d="M579.19,108.41c-7.24,0-9.28-1.48-9.28-3.84,0-1.72,1.88-2.88,4.44-3.4v-.24c-2.04-.28-2.92-1.28-2.92-2.6,0-1.08.84-2.04,2.4-2.72l1.4-.72c-2.84-.92-4.4-2.92-4.4-5.88,0-4.24,3.2-6.6,8.6-6.6h9.6v4.08h-2.08c-.92,0-2.12-.04-3.64-.2l-.04.44c2.36.44,4.36,1.32,4.36,3.52,0,3.16-3,5.2-8.32,5.2-1.16,0-2.24-.12-3.16-.32l-.32.52c-.2.36-.36.72-.36,1.04,0,.68.48.96,1.68.96,2.08,0,4.24-.12,6.2-.12,4.2,0,6.12,1.84,6.12,4.92,0,3.96-2.6,5.96-10.28,5.96ZM585.27,102.61c0-.92-.64-1.56-2.16-1.56h-6.44c-1.68,0-2.68.8-2.68,1.72,0,1.28,1,1.84,5.56,1.84s5.72-.68,5.72-2ZM575.68,89.22c0,1.52.92,2.68,3.64,2.68s3.72-1.16,3.72-2.68-1.12-2.68-3.72-2.68-3.64,1.16-3.64,2.68Z"/>
          <path class="cls-1" d="M591.75,79.74v-3.92h5.68v3.92h-5.68ZM591.87,101.37v-18.96h5.44v18.96h-5.44Z"/>
          <path class="cls-1" d="M610.03,86.66c-2.52,0-4.08,1.6-4.08,5.2,0,3.36,1.36,5.32,4.16,5.32,2.44,0,3.36-1.64,3.76-3.6l5,1.2c-.64,4.4-3.32,7.16-8.72,7.16-6,0-9.76-3.32-9.76-9.8s3.68-10.24,9.72-10.24c5.64,0,8.04,2.68,8.72,7.28l-5.04.96c-.48-2.04-1.36-3.48-3.76-3.48Z"/>
          <path class="cls-1" d="M620.98,91.9c0-6.32,3.76-10,9.8-10s9.72,3.68,9.72,10-3.68,10.04-9.72,10.04-9.8-3.8-9.8-10.04ZM626.42,91.86c0,3.44,1.24,5.44,4.32,5.44s4.32-2,4.32-5.44-1.32-5.4-4.32-5.4-4.32,1.96-4.32,5.4Z"/>
        </g>
        <g>
          <path class="cls-1" d="M0,12.94h13.1c6.78,0,10.54,3.76,10.54,10.54v1.5H0v-12.04ZM23.64,110.82V24.99h2.26c6.78,0,10.54,3.76,10.54,10.54v85.83h-2.26c-6.78,0-10.54-3.76-10.54-10.54ZM36.44,12.94h23.64v12.04h-23.64v-12.04Z"/>
          <path class="cls-1" d="M20.86,124.14v7.65H2.78v-7.65h18.08M23.64,121.36H0v13.21h23.64v-13.21h0Z"/>
        </g>
        <path class="cls-1" d="M664.47,0h13.1c6.78,0,10.54,3.76,10.54,10.54v1.5h-23.64V0ZM688.11,97.88V12.04h2.26c6.78,0,10.54,3.76,10.54,10.54v85.83h-2.26c-6.78,0-10.54-3.76-10.54-10.54Z"/>
      </g>
      <path class="cls-1" d="M649.57,136.34H33.83V11.04h655.25v85.78c0,21.79-17.72,39.51-39.51,39.51ZM37.37,132.8h612.2c19.83,0,35.97-16.14,35.97-35.97V14.58H37.37v118.21Z"/>
    </g>
  </g>
</svg>